<svg width="15" height="15" viewBox="0 0 15 15" fill="none" xmlns="http://www.w3.org/2000/svg">
<mask id="path-1-inside-1_30016_2118" fill="white">
<path fill-rule="evenodd" clip-rule="evenodd" d="M14.0995 0.27329C14.7769 0.645909 15.0241 1.49719 14.6515 2.17468L8.33975 13.6505C7.57502 15.0409 5.60377 15.1135 4.73896 13.783L0.825952 7.76298C0.404568 7.11469 0.588506 6.24755 1.23679 5.82617C1.88507 5.40479 2.75221 5.58872 3.17359 6.23701L6.44962 11.277L12.1981 0.825306C12.5707 0.147817 13.422 -0.0993293 14.0995 0.27329Z"/>
</mask>
<path d="M14.6515 2.17468L17.1049 3.52405L17.1049 3.52405L14.6515 2.17468ZM14.0995 0.27329L15.4488 -2.18011L15.4488 -2.18012L14.0995 0.27329ZM8.33975 13.6505L10.7932 14.9999L10.7932 14.9999L8.33975 13.6505ZM4.73896 13.783L2.39132 15.309L2.39132 15.309L4.73896 13.783ZM0.825952 7.76298L-1.52169 9.28894H-1.52169L0.825952 7.76298ZM1.23679 5.82617L2.76276 8.17381L2.76276 8.17381L1.23679 5.82617ZM3.17359 6.23701L5.52124 4.71104L3.17359 6.23701ZM6.44962 11.277L4.10197 12.803L6.64993 16.7229L8.90302 12.6264L6.44962 11.277ZM12.1981 0.825306L9.74467 -0.524069L9.74467 -0.524067L12.1981 0.825306ZM17.1049 3.52405C18.2227 1.49158 17.4813 -1.06226 15.4488 -2.18011L12.7501 2.72669C12.0726 2.35408 11.8255 1.5028 12.1981 0.825306L17.1049 3.52405ZM10.7932 14.9999L17.1049 3.52405L12.1981 0.825305L5.88634 12.3012L10.7932 14.9999ZM2.39132 15.309C4.40921 18.4134 9.0088 18.2442 10.7932 14.9999L5.88634 12.3012C6.14125 11.8377 6.79833 11.8135 7.0866 12.257L2.39132 15.309ZM-1.52169 9.28894L2.39132 15.309L7.0866 12.257L3.17359 6.23701L-1.52169 9.28894ZM-0.289177 3.47853C-2.23403 4.74268 -2.78584 7.34409 -1.52169 9.28894L3.17359 6.23701C3.59498 6.88529 3.41104 7.75243 2.76276 8.17381L-0.289177 3.47853ZM5.52124 4.71104C4.25708 2.76619 1.65567 2.21438 -0.289178 3.47853L2.76276 8.17381C2.11447 8.5952 1.24734 8.41126 0.825952 7.76298L5.52124 4.71104ZM8.79726 9.75107L5.52124 4.71104L0.825952 7.76298L4.10197 12.803L8.79726 9.75107ZM9.74467 -0.524067L3.99621 9.92767L8.90302 12.6264L14.6515 2.17468L9.74467 -0.524067ZM15.4488 -2.18012C13.4164 -3.29797 10.8625 -2.55653 9.74467 -0.524069L14.6515 2.17468C14.2789 2.85217 13.4276 3.09931 12.7501 2.72669L15.4488 -2.18012Z" fill="#C29974" mask="url(#path-1-inside-1_30016_2118)"/>
</svg>
