<svg width="251" height="85" viewBox="0 0 251 85" fill="none" xmlns="http://www.w3.org/2000/svg">
<path d="M9.28529 65.6524L3.23788 64.4441C1.06081 63.9608 -0.390569 61.7859 0.0932239 59.8526L6.38253 28.92C6.86633 26.745 8.8015 25.2951 10.9786 25.7784L17.026 26.9867C19.2031 27.47 20.6544 29.6449 20.1706 31.5782L13.8813 62.5108C13.6394 64.6858 11.4624 66.1357 9.28529 65.6524Z" fill="#A39BAD"/>
<path d="M9.52872 64.444L9.04492 70.7272C9.52871 72.9021 10.4963 74.5937 11.9477 76.2854C12.9153 77.4937 14.1248 78.4603 15.5761 78.9436C16.0599 79.1853 16.5437 79.427 17.0275 79.427L30.0899 84.9852H236.428L241.749 84.2602C244.652 83.7769 247.313 81.8436 248.039 78.9436C248.039 78.702 248.281 78.4603 248.281 78.2187L248.522 77.4937L248.764 76.7687L250.216 69.5189L250.7 66.6189C250.7 66.3773 250.7 65.8939 250.941 65.6523C250.941 65.169 250.941 64.6856 250.941 64.2023C250.941 63.719 250.7 63.2357 250.7 62.994C250.7 62.994 250.7 62.7524 250.458 62.7524L245.378 49.461C245.136 48.736 244.894 48.2527 244.652 47.7694C244.41 47.5277 244.168 47.0444 243.926 46.8027C243.443 46.3194 242.959 45.5944 242.475 45.3527C242.233 45.1111 241.991 44.8694 241.508 44.6278C241.508 44.6278 241.266 44.6277 241.266 44.3861C241.024 44.1444 240.782 44.1444 240.54 43.9028C240.298 43.9028 240.056 43.6611 239.814 43.6611C239.572 43.6611 239.572 43.4195 239.33 43.4195C238.847 43.1778 238.605 43.1778 238.121 42.9361L182.485 29.1614C181.517 28.6781 180.55 28.1948 179.582 27.4698L155.634 6.92859C152.248 3.78699 149.829 3.30369 144.507 2.33704C114.028 -0.0795716 77.0179 0.16209 46.297 2.33704C40.0077 2.33704 34.2022 5.47864 31.0575 10.7952C31.0575 10.7952 15.3342 36.8946 15.3342 37.1362L15.0923 38.5862L10.4963 58.6441V58.8858C10.2544 59.6107 10.2544 60.3357 10.2544 61.0607C9.28682 62.269 9.28682 63.2357 9.52872 64.444Z" fill="#C1B9CD"/>
<path d="M115.236 73.3855V6.68694C115.236 5.23697 116.446 4.27032 117.655 4.27032C126.605 4.51199 135.314 4.99529 143.296 5.72027C148.618 6.44526 150.069 6.92858 152.73 9.34519L172.808 26.5032C175.227 28.6781 176.678 31.578 176.678 34.7196V73.1438C176.678 75.3188 174.985 77.0104 172.808 77.0104H119.107C116.93 77.0104 115.236 75.3188 115.236 73.3855Z" fill="#CCC3D9"/>
<path d="M117.896 8.13707V30.6116C117.896 31.5782 118.622 32.3032 119.59 32.3032L172.081 33.5115C173.049 33.5115 173.775 32.5448 173.291 31.5782C172.807 30.6115 172.081 29.6449 171.114 28.6783L151.036 11.5203C149.101 9.58706 148.134 9.34537 143.054 8.62039C135.555 8.13706 127.572 7.65374 119.106 7.41208C118.38 6.92876 117.896 7.41209 117.896 8.13707Z" fill="#DDD3EA"/>
<path d="M238.118 52.6029L241.263 60.0943C241.747 61.5443 243.44 62.5109 245.375 62.9943C245.859 62.9943 246.343 63.2359 246.827 63.2359H249.488C249.729 63.2359 249.971 63.2359 250.213 62.9943C250.213 62.9943 250.213 62.7526 249.971 62.7526L244.892 49.4613C244.65 48.7363 244.408 48.253 244.166 47.7696C243.924 47.528 243.682 47.0446 243.44 46.803H242.714C240.779 46.803 239.328 47.528 238.36 48.7363C237.635 49.7029 237.635 51.1529 238.118 52.6029Z" fill="#A39BAD"/>
<path d="M239.085 52.1195L242.23 59.611C242.714 60.8193 244.165 61.5443 245.617 62.0276C246.1 62.0276 246.342 62.2693 246.826 62.2693H249.487C250.455 62.2693 250.455 60.336 249.245 56.7111C248.278 53.8111 247.31 52.1195 246.1 49.4612C245.617 48.4946 244.649 47.7696 243.681 47.7696H242.714C239.569 47.7696 238.118 49.7029 239.085 52.1195Z" fill="#D0C7DD"/>
<path d="M15.5762 78.9435C16.06 79.1851 16.5438 79.4268 17.0276 79.4268L30.09 84.985H236.428L241.749 84.26C244.652 83.7767 247.313 81.8434 248.039 78.9435H15.5762Z" fill="#A39BAD"/>
<path d="M231.105 84.9855H236.427L241.749 84.2605C244.652 83.7772 247.313 81.8439 248.038 78.944C248.038 78.7023 248.28 78.4606 248.28 78.219L248.522 77.494L248.764 76.769L250.215 69.5191L250.699 66.6192C250.699 66.3775 250.699 65.8942 250.941 65.6525H244.894C240.056 65.6525 235.943 68.7941 234.734 73.3857L231.105 84.9855Z" fill="#A39BAD"/>
<path d="M8.80078 69.2777C9.04268 73.1443 9.04267 74.3526 11.4616 76.5275C14.3644 79.1858 29.8458 84.9857 29.8458 84.9857L28.1525 70.2443C26.7011 64.9278 22.1051 61.3029 16.5415 61.3029H9.28457C9.28457 62.2695 8.80078 69.2777 8.80078 69.2777Z" fill="#A39BAD"/>
<path d="M242.958 72.6604C242.716 74.1104 243.2 75.3187 244.168 75.3187C245.135 75.3187 246.103 74.1104 246.345 72.6604C246.587 71.2105 246.103 70.0022 245.135 70.0022C244.168 69.7605 243.2 71.2105 242.958 72.6604Z" fill="#D0C7DD"/>
<path d="M14.8486 68.5525C15.0905 70.7274 14.6067 72.4191 13.6391 72.4191C12.6715 72.4191 11.7039 70.7274 11.462 68.5525C11.2201 66.3775 11.7039 64.6859 12.6715 64.6859C13.6391 64.4443 14.6067 66.3775 14.8486 68.5525Z" fill="#D0C7DD"/>
<path d="M9.52734 58.886H10.253C11.4625 58.886 12.4301 58.161 12.672 56.9527L16.3004 41.9697C16.5423 41.2447 16.3005 40.5198 15.8167 39.7948C15.3329 39.3115 14.6072 38.8281 13.8815 38.8281L9.52734 58.886Z" fill="#A39BAD"/>
<path d="M8.80185 50.6697L13.156 51.6363L11.9465 56.7112C11.7046 57.4362 11.2208 57.9196 10.4951 57.9196H9.52754C8.31805 57.9196 7.35047 56.7112 7.83426 55.7446L8.80185 50.6697Z" fill="#D0C7DD"/>
<path d="M11.2197 41.2444C11.4616 40.5194 12.1873 39.7944 12.913 39.7944H14.1225C15.0901 39.7944 15.8158 40.7611 15.5739 41.7277L13.1549 51.6358L8.80078 50.6692L11.2197 41.2444Z" fill="#C1B9CD"/>
<path d="M174.017 31.8196C174.259 35.4445 170.63 35.4445 167.727 35.6862C167.485 35.6862 167.002 35.6862 166.76 35.6862L169.904 22.3948C172.081 23.3614 173.775 28.678 174.017 31.8196Z" fill="#C1B9CD"/>
<g opacity="0.75">
<path opacity="0.75" d="M120.074 8.37823L137.733 31.3361L153.456 31.5777L136.281 9.10323C130.96 8.6199 125.638 8.37823 120.074 8.37823Z" fill="white"/>
<path opacity="0.75" d="M138.217 9.10333L155.15 31.5778H160.229L143.539 9.34497C143.297 9.34497 143.055 9.34497 142.813 9.34497C141.361 9.34497 139.91 9.34499 138.217 9.10333Z" fill="white"/>
</g>
<path d="M180.307 84.9848H229.654L229.17 78.9432L228.686 75.0766C227.96 66.8602 220.945 60.577 212.721 60.577H196.756C188.289 60.577 181.516 67.1018 180.79 75.3183L180.549 78.9432L180.307 84.9848Z" fill="#A39BAD"/>
<path d="M73.8719 4.02865C82.5802 3.54532 86.9343 3.78697 95.1588 3.78697C99.9968 3.78697 104.835 3.78699 109.673 4.02865C111.124 4.02865 112.575 5.23694 112.575 6.92857V74.3521C112.575 75.802 111.366 77.0103 109.915 77.0103H88.6276C87.4181 77.0103 86.2087 76.0437 86.2087 74.8354V74.5937C85.2411 64.4439 76.5328 56.4691 66.3731 56.4691H63.2285C59.3581 56.4691 55.9716 53.3275 55.9716 49.2193V34.9613C55.7297 34.9613 64.6799 4.51197 73.8719 4.02865Z" fill="#CCC3D9"/>
<path d="M45.5717 30.6115L26.4619 30.1282C25.2524 30.1282 24.5267 28.9199 25.2524 27.7116C28.1552 22.8784 31.2998 17.0785 34.4445 12.4869C38.0729 6.92866 40.9757 5.4787 56.2152 5.4787C57.4247 5.4787 58.1504 6.68699 57.6666 7.65364C55.0057 13.6952 50.1678 22.6367 47.5069 29.4032C46.7812 30.1282 46.2974 30.6115 45.5717 30.6115Z" fill="#DDD3EA"/>
<path d="M61.777 30.8533L108.463 31.82C109.189 31.82 109.914 31.095 109.914 30.37V8.1371C109.914 6.92879 109.673 6.44547 108.463 6.44547C105.318 6.44547 103.383 6.44546 100.239 6.2038C98.5453 6.2038 96.852 6.2038 95.1587 6.2038C92.7397 6.2038 90.5627 6.2038 88.6275 6.2038C86.9342 6.2038 85.241 6.2038 83.5477 6.2038C80.403 6.2038 77.5003 6.20381 74.1137 6.44547C73.6299 6.44547 72.9042 6.68714 72.4204 7.17047C68.792 9.58708 64.196 18.7702 60.5675 28.92C60.3256 29.8867 60.8094 30.8533 61.777 30.8533Z" fill="#DDD3EA"/>
<path d="M33.7168 84.9848H83.0637L82.5799 78.9432L82.0961 75.0766C81.3704 66.8602 74.3554 60.577 66.1309 60.577H50.1658C41.6994 60.577 34.6844 67.1018 34.2006 75.3183L33.9587 78.9432L33.7168 84.9848Z" fill="#A39BAD"/>
<path d="M119.347 39.0696L128.297 39.3113C128.781 39.3113 129.023 39.0696 129.023 38.5863V36.8947C129.023 36.4114 128.781 36.1697 128.297 36.1697L119.347 35.928C118.863 35.928 118.621 36.1697 118.621 36.653V38.3447C118.621 38.828 118.863 39.0696 119.347 39.0696Z" fill="white"/>
<path d="M62.2628 37.6195L71.213 37.8612C71.6968 37.8612 71.9387 37.6195 71.9387 37.1362V35.4445C71.9387 34.9612 71.6968 34.7195 71.213 34.7195L62.2628 34.4779C61.779 34.4779 61.5371 34.7195 61.5371 35.2029V36.8945C61.5371 37.3779 62.0209 37.6195 62.2628 37.6195Z" fill="white"/>
<path opacity="0.15" d="M1.0611 55.2609L249.247 73.1439L248.521 76.7688L248.279 77.4938L248.037 78.2188C248.037 78.4604 248.037 78.7021 247.796 78.9438C247.07 81.8437 244.409 84.0187 241.506 84.2603L236.185 84.9853H230.863H229.653H180.306H83.064H33.7171H30.0887C30.0887 84.9853 14.3654 79.1854 11.7045 76.5272C9.28558 74.3522 9.28558 73.1439 9.04368 69.2773C9.04368 69.2773 9.04368 67.5857 9.28558 65.6524L3.48006 64.4441C1.303 63.9608 -0.148382 61.7858 0.335411 59.8525L1.0611 55.2609Z" fill="#8E8796"/>
<path d="M58.3904 57.9192H49.1983C39.5224 57.9192 31.298 65.4107 30.5723 75.0772C31.0561 64.4441 35.6521 52.6026 58.3904 57.9192Z" fill="#CCC3D9"/>
<path d="M206.189 57.9192H196.997C187.321 57.9192 179.097 65.4107 178.371 75.0772C178.855 64.4441 183.451 52.6026 206.189 57.9192Z" fill="#CCC3D9"/>
<g opacity="0.75">
<path opacity="0.75" d="M70.7266 10.7956L85.4823 30.1285L101.206 30.3701L84.0309 7.65399H83.5471C80.4024 7.65399 77.4997 7.65401 74.1131 7.89567C73.8712 7.89567 73.6293 7.89566 73.1455 8.37898C72.4198 8.8623 71.6941 9.58729 70.7266 10.7956Z" fill="white"/>
<path opacity="0.75" d="M85.9648 7.65405L103.139 30.3702H108.219L91.0447 7.65405C90.5609 7.65405 90.0771 7.65405 89.5933 7.65405H88.3838C87.4162 7.65405 86.6905 7.65405 85.9648 7.65405Z" fill="white"/>
</g>
<g opacity="0.75">
<path opacity="0.75" d="M31.5391 19.4954L39.0379 29.1619L45.811 29.4035C45.811 29.4035 46.0529 29.4035 46.0529 29.1619C47.0204 26.9869 47.988 24.5703 49.1975 22.1537L39.2798 9.3457C37.5865 10.3123 36.6189 11.7623 35.4094 13.4539C34.1999 15.1456 32.7485 17.3205 31.5391 19.4954Z" fill="white"/>
<path opacity="0.75" d="M40.7305 8.62038L49.9225 20.7035C50.6482 19.2535 51.132 18.0452 51.8577 16.5952L45.0846 7.65375C43.1494 7.89541 41.94 8.13706 40.7305 8.62038Z" fill="white"/>
</g>
</svg>
