<svg width="205" height="86" viewBox="0 0 205 86" fill="none" xmlns="http://www.w3.org/2000/svg">
<path d="M88.2969 2.20078C88.2969 3.4091 89.2644 4.37577 90.4739 4.37577H110.793C112.003 4.37577 112.97 3.4091 112.97 2.20078C112.97 0.992458 112.003 0.0258179 110.793 0.0258179H90.4739C89.2644 0.0258179 88.2969 0.992458 88.2969 2.20078Z" fill="#CBC2D7"/>
<path d="M8.95508 80.9825C8.95508 81.2242 9.19699 81.4658 9.19699 81.7075C9.19699 81.9491 9.43886 81.9491 9.43886 81.9491C9.43886 81.9491 9.43888 82.1908 9.68078 82.1908C9.68078 82.4325 9.92269 82.4324 9.92269 82.6741C10.1646 83.1574 10.6484 83.3991 11.1322 83.8824C11.3741 84.1241 11.6159 84.1241 11.8578 84.3657H12.0997C12.3416 84.6074 12.5835 84.6074 12.8254 84.6074L15.4863 85.3324L16.212 85.574H16.4539H22.5013H22.9851H27.5811H37.0151H41.6111H42.0949H48.3842H50.3194H53.9478L109.584 85.3324H152.4H155.302H161.592H162.076H166.43H176.589H180.944H181.427H187.717L188.926 84.849L189.894 84.6074L195.699 82.9158C195.941 82.9158 196.183 82.6741 196.183 82.6741C196.425 82.4324 196.667 82.4325 196.909 82.1908C197.151 82.1908 197.151 81.9491 197.392 81.9491C197.634 81.9491 197.634 81.7075 197.634 81.7075L197.876 81.4658C198.118 81.2241 198.118 80.9825 198.36 80.4992C198.602 79.7742 198.844 79.0492 198.844 78.5659V76.8743V74.6993V72.5243V71.0744V67.6911V66.7245V62.1329C198.844 60.9246 198.844 59.4746 198.602 58.2663C198.602 58.0247 198.602 57.5413 198.36 57.2997C198.118 56.5747 197.876 55.8497 197.634 55.1247C197.151 54.1581 196.425 53.6748 195.215 53.1914C195.215 53.1914 169.091 44.975 163.769 43.0417C163.285 42.8 162.801 42.8 162.801 42.5583L161.108 42.075H150.706C148.529 42.075 146.594 40.1417 146.594 37.9668V15.009C146.594 13.559 147.804 12.3507 149.255 12.3507H151.674L152.4 11.8674C152.158 10.9007 151.916 10.659 151.432 9.93406C147.562 3.16755 141.514 3.16758 126.275 3.16758H112.971L88.2971 3.40922L31.4515 2.9259C28.3068 2.9259 23.4689 4.61753 21.0499 8.96743C20.808 9.45076 20.5661 9.93409 20.5661 10.4174L10.6483 40.3834C9.92266 42.5583 9.68076 44.7333 9.43886 46.9082V48.1165V54.1581V58.508V62.6162V68.6578V75.4243V79.0492L8.95508 80.9825Z" fill="#CBC2D7"/>
<path d="M13.793 79.0494C13.793 80.0161 13.793 80.9827 14.0349 81.7077C14.2768 82.6744 14.5187 83.8826 14.7606 84.8493H15.7281L49.1099 84.6076L50.3193 84.366L51.2869 84.1243C51.7707 82.6744 52.0126 81.2244 52.0126 79.5327C52.0126 79.2911 52.0126 79.2911 52.0126 79.0494C52.0126 68.6579 43.5463 59.9581 32.9028 59.9581C22.2594 60.1998 13.793 68.6579 13.793 79.0494Z" fill="#A69FB0"/>
<path d="M152.158 79.0494C152.158 80.0161 152.158 80.9827 152.4 81.7077C152.642 82.6744 152.884 83.8826 153.126 84.8493H154.093L187.475 84.6076L188.685 84.366L189.652 84.1243C190.136 82.6744 190.378 81.2244 190.378 79.5327C190.378 79.2911 190.378 79.2911 190.378 79.0494C190.378 68.6579 181.911 59.9581 171.268 59.9581C160.625 60.1998 152.158 68.6579 152.158 79.0494Z" fill="#A69FB0"/>
<path d="M8.4707 79.0493C8.7126 81.7075 10.4059 83.8825 13.0667 84.6075L15.7276 85.3325L16.6952 85.5741L50.0769 85.3325L153.125 84.8491H154.092L187.474 84.6075L188.684 84.3658L189.651 84.1242L195.457 82.4325C196.666 81.9492 197.876 80.9825 198.359 80.0159V79.2909L190.377 79.7742L154.334 81.9492H152.399H50.0769L8.4707 79.0493Z" fill="#A69FB0"/>
<path d="M198.846 80.9826C198.846 82.4326 200.055 83.6409 201.507 83.6409C205.135 83.6409 205.377 74.4578 201.507 74.4578C200.055 74.4578 198.846 75.6661 198.846 77.1161V80.9826Z" fill="#A59DAF"/>
<path d="M191.83 79.0491C191.83 80.7407 193.281 82.1906 194.975 82.1906H200.055C201.748 82.1906 203.199 80.7407 203.199 79.0491C203.199 77.3574 201.748 75.9075 200.055 75.9075H194.975C193.281 76.1491 191.83 77.3574 191.83 79.0491Z" fill="#E2D8F1"/>
<path d="M119.742 11.1426H138.61C141.271 11.1426 143.448 13.3175 143.448 15.9758V73.9744C143.448 77.3577 140.787 80.016 137.401 80.016H137.159C125.064 80.016 115.388 70.3495 115.388 58.2665V16.2175C114.904 13.3175 117.081 11.1426 119.742 11.1426Z" fill="#A69FB0"/>
<path d="M7.01976 80.4993C7.01976 81.9493 5.81027 83.1576 4.11698 83.1576C0.00469542 83.1576 -0.237203 73.9744 4.11698 73.9744C5.56837 73.9744 7.01976 75.1828 7.01976 76.6327V80.4993Z" fill="#A59DAF"/>
<path d="M14.5195 78.5662C14.5195 80.2578 13.0682 81.7078 11.3749 81.7078H6.29506C4.60178 81.7078 3.15039 80.2578 3.15039 78.5662C3.15039 76.8745 4.60178 75.4246 6.29506 75.4246H11.3749C13.3101 75.6662 14.5195 76.8745 14.5195 78.5662Z" fill="#E2D8F1"/>
<path d="M120.711 48.3586H124.581C125.549 48.3586 126.274 47.6336 126.274 46.667C126.274 45.7003 125.549 44.9753 124.581 44.9753H120.711C119.743 44.9753 119.018 45.7003 119.018 46.667C119.018 47.6336 119.743 48.3586 120.711 48.3586Z" fill="#CBC2D7"/>
<path d="M120.227 46.6672C120.227 46.9089 121.92 47.3922 124.097 47.3922C126.274 47.3922 127.967 47.1505 127.967 46.6672C127.967 46.4255 126.274 45.9422 124.097 45.9422C121.92 45.9422 120.227 46.1839 120.227 46.6672Z" fill="#EADFF8"/>
<path d="M21.0488 9.20922H151.189C147.319 2.44263 141.271 2.44263 126.032 2.44263L31.4504 2.92595C28.3057 2.92595 23.2259 4.61761 21.0488 9.20922Z" fill="#A69FB0"/>
<path d="M146.354 14.2841V37.2419C146.354 39.4169 148.289 41.3502 150.466 41.3502H160.867C160.867 40.8669 160.625 40.3836 160.625 39.9002C158.448 30.7171 155.787 21.7756 152.159 13.0758C151.917 12.5925 151.675 12.1092 151.433 11.6259H149.014C147.563 11.6259 146.354 12.8341 146.354 14.2841Z" fill="#DDD3EA"/>
<path d="M149.013 10.9005H152.157C152.157 10.9005 151.916 11.3838 151.674 12.1088H149.013C147.803 12.1088 146.836 13.0754 146.836 14.2838V37.2416C146.836 39.1749 148.529 40.8665 150.464 40.8665H160.624C160.624 40.8665 162.075 41.8331 162.559 42.0748H161.591H150.464C147.803 42.0748 145.868 39.8999 145.868 37.4832V14.5254C145.626 12.5921 147.078 10.9005 149.013 10.9005Z" fill="#A69FB0"/>
<path d="M191.828 60.9247C191.828 63.583 194.005 65.5162 196.424 65.5162H198.601V60.9247C198.601 59.7164 198.601 58.2664 198.359 57.0581C198.359 56.8165 198.359 56.3332 198.117 56.0915H196.424C193.763 56.3332 191.828 58.5081 191.828 60.9247Z" fill="#A69FB0"/>
<path d="M196.425 57.2996H198.118C198.602 57.2996 199.086 57.7829 199.328 58.2663C199.811 60.1996 199.811 62.1329 199.328 63.8245C199.086 64.3079 198.602 64.7912 198.118 64.7912H196.425C194.248 64.7912 192.555 62.8579 192.796 60.6829C192.796 58.7496 194.49 57.2996 196.425 57.2996Z" fill="#D0C7DD"/>
<path d="M9.19922 62.6163H13.0695C15.4885 62.6163 17.4237 60.683 17.4237 58.2664C17.4237 55.8498 15.4885 53.9165 13.0695 53.9165H9.44109V58.2664L9.19922 62.6163Z" fill="#CCC3D9"/>
<path d="M120.951 39.4168H137.4C139.335 39.4168 140.786 37.9669 140.786 36.0336V16.9424C140.786 15.0091 139.335 13.5591 137.4 13.5591H120.951C119.015 13.5591 117.564 15.0091 117.564 16.9424V36.0336C117.322 37.9669 119.015 39.4168 120.951 39.4168Z" fill="#DDD3EA"/>
<path d="M168.608 49.5663L197.393 54.3995C196.909 53.4329 196.184 52.9495 194.974 52.4662C194.974 52.4662 168.849 44.2498 163.528 42.3165C162.802 45.6997 164.979 49.083 168.608 49.5663Z" fill="#A69FB0"/>
<path d="M197.875 73.7323C197.875 73.974 198.117 74.2156 198.358 74.2156C198.6 74.2156 198.842 73.974 198.842 73.7323V68.4158C198.842 68.1742 198.6 67.9325 198.358 67.9325C198.117 67.9325 197.875 68.1742 197.875 68.4158V73.7323Z" fill="#A69FB0"/>
<path d="M196.184 73.7323C196.184 73.974 196.425 74.2156 196.667 74.2156C196.909 74.2156 197.15 73.974 197.15 73.7323V68.4158C197.15 68.1742 196.909 67.9325 196.667 67.9325C196.425 67.9325 196.184 68.1742 196.184 68.4158V73.7323Z" fill="#A69FB0"/>
<path d="M194.732 73.7323C194.732 73.974 194.974 74.2156 195.216 74.2156C195.457 74.2156 195.699 73.974 195.699 73.7323V68.4158C195.699 68.1742 195.457 67.9325 195.216 67.9325C194.974 67.9325 194.732 68.1742 194.732 68.4158V73.7323Z" fill="#A69FB0"/>
<path d="M24.9204 41.1082H103.295C105.23 41.1082 106.923 39.4165 106.923 37.4833V15.0088C106.923 13.0755 105.23 11.3839 103.295 11.3839H30.7259C29.0326 11.3839 27.5813 12.3505 27.0975 14.0421L20.5663 35.55C20.0825 38.2082 22.0177 41.1082 24.9204 41.1082Z" fill="#C0B7CC"/>
<path d="M30.7227 17.1837C30.7227 17.9087 31.4484 18.6337 32.174 18.6337H101.115C101.84 18.6337 102.566 17.9087 102.566 17.1837C102.566 16.4587 101.84 15.7338 101.115 15.7338H32.174C31.4484 15.7338 30.7227 16.4587 30.7227 17.1837Z" fill="#CBC2D7"/>
<path d="M29.0293 23.2251C29.0293 23.95 29.755 24.675 30.4807 24.675H101.115C101.84 24.675 102.566 23.95 102.566 23.2251C102.566 22.5001 101.84 21.7751 101.115 21.7751H30.4807C29.755 21.7751 29.0293 22.5001 29.0293 23.2251Z" fill="#CBC2D7"/>
<path d="M27.3359 29.2668C27.3359 29.9918 28.0616 30.7168 28.7873 30.7168H101.114C101.84 30.7168 102.566 29.9918 102.566 29.2668C102.566 28.5418 101.84 27.8168 101.114 27.8168H28.7873C28.0616 27.8168 27.3359 28.3001 27.3359 29.2668Z" fill="#CBC2D7"/>
<path d="M25.6426 35.0665C25.6426 35.7914 26.3682 36.5164 27.0939 36.5164H101.114C101.84 36.5164 102.566 35.7914 102.566 35.0665C102.566 34.3415 101.84 33.6165 101.114 33.6165H27.0939C26.3682 33.8581 25.6426 34.3415 25.6426 35.0665Z" fill="#CBC2D7"/>
<g opacity="0.65">
<path opacity="0.65" d="M118.291 16.217L128.209 38.4499H136.675L126.032 14.2838H120.952C119.742 14.2838 118.775 15.2504 118.291 16.217Z" fill="white"/>
<path opacity="0.65" d="M127.24 14.2837L137.884 38.4498C138.851 38.2082 139.577 37.4832 139.819 36.5165L130.143 14.2837H127.24Z" fill="white"/>
</g>
<g opacity="0.65">
<path opacity="0.65" d="M147.078 14.7671V20.567L155.544 39.8999H160.14C157.963 30.7168 155.303 21.7753 151.674 13.0755H148.771C148.046 13.0755 147.078 13.8005 147.078 14.7671Z" fill="white"/>
</g>
<path opacity="0.1" d="M4.11651 73.974C5.32599 73.974 6.2936 74.699 6.77739 75.424H9.19635V68.6575V63.0992L198.843 73.249V73.7324C198.843 73.974 198.601 74.2157 198.601 74.2157V76.149H199.085C199.569 75.1823 200.295 74.699 201.504 74.699C205.374 74.699 205.133 83.8821 201.504 83.8821C200.536 83.8821 199.569 83.1571 199.085 82.4321H195.699C195.457 82.4321 195.215 82.6738 195.215 82.6738L189.893 84.3654L189.409 84.6071H189.167L188.442 84.8487L187.232 85.0904H182.878H177.314H176.347H168.848H160.382H155.302H152.399H150.464L50.3188 85.5737H50.0769H44.0294H41.8524H41.3686H36.7725H27.3386H22.7425H22.2588H19.1141H16.2113L15.4856 85.3321H15.2438L12.5829 84.6071C12.341 84.6071 11.8572 84.3654 11.6153 84.1238C10.4058 83.6405 9.68013 82.9155 8.95444 81.9488C8.95444 81.9488 8.95446 81.7072 8.71257 81.7072H6.05169C5.5679 82.6738 4.6003 83.1571 3.39081 83.1571C0.24616 83.1571 0.00427103 73.974 4.11651 73.974Z" fill="#8E8796"/>
<path d="M148.287 38.6918C148.287 39.1751 148.771 39.6584 149.255 39.6584H152.399C152.883 39.6584 153.367 39.1751 153.367 38.6918V26.8503C153.367 26.1254 152.641 25.4004 151.916 25.4004H149.738C149.013 25.4004 148.529 25.8837 148.529 26.6087V38.6918H148.287Z" fill="#A69FB0"/>
<path d="M156.996 44.9748C157.238 44.9748 157.238 44.9748 157.48 44.9748C157.964 44.7332 157.964 44.2499 157.964 43.7665L152.158 32.6502C151.916 32.1669 151.432 32.1669 150.949 32.1669C150.465 32.4085 150.465 32.8919 150.465 33.3752L156.27 44.4915C156.512 44.9748 156.754 44.9748 156.996 44.9748Z" fill="#9891A1"/>
</svg>
