<svg width="247" height="54" viewBox="0 0 247 54" fill="none" xmlns="http://www.w3.org/2000/svg">
<path d="M3.97323 39.7289H4.45702C4.94083 39.7289 5.42465 39.0039 5.42465 38.0372L6.15033 32.2374C6.15033 31.2707 5.90846 30.3041 5.42465 30.0624H5.18274C4.69893 30.0624 4.21514 30.7874 4.21514 31.7541L3.48943 37.5539C3.24753 38.7622 3.48942 39.7289 3.97323 39.7289Z" fill="#C1B8CD"/>
<path d="M241.997 41.662L243.69 41.4203C244.658 41.4203 245.626 40.4537 245.626 39.2454L246.351 31.2706C246.351 30.0623 245.868 29.0956 244.658 28.854L243.69 28.6123L241.997 41.662Z" fill="#D0C7DD"/>
<path d="M241.272 42.1449L243.691 41.9032L245.143 28.3701L242.24 28.1285L241.272 42.1449Z" fill="#9C95A6"/>
<path d="M241.756 50.1199H244.417C245.143 50.1199 245.626 49.6366 245.868 48.9116L246.594 44.5617C246.836 43.8367 246.11 42.8701 245.143 42.8701H241.514L240.789 48.67C240.547 49.395 241.03 50.1199 241.756 50.1199Z" fill="#E1D7EF"/>
<path d="M12.6795 50.845L38.5624 52.5366H40.0138L43.1585 52.7783H221.194L236.192 50.845C239.336 50.3617 241.997 47.9451 242.481 44.5618L244.174 28.6122C244.658 24.5039 241.755 23.7789 237.643 23.5373L170.154 20.154C167.735 19.9124 165.316 19.1874 163.139 17.4957L143.304 2.27112C141.852 1.30448 140.401 0.579468 138.708 0.579468H80.4105C74.8469 0.579468 69.2832 2.75443 65.171 6.86267L56.4628 15.3208C55.4952 16.2875 54.0438 17.0124 52.5924 17.2541L9.29296 26.1956C7.11589 26.6789 5.66449 28.3705 5.4226 30.5455L4.21312 40.4535C3.72932 46.0117 7.35777 50.6033 12.6795 50.845Z" fill="#A69FB0"/>
<path opacity="0.2" d="M173.784 22.8119L237.161 25.9535C238.612 25.9535 242.483 26.1951 241.999 29.3367L240.306 44.8031C241.273 27.1618 239.338 28.1284 231.839 27.6451L173.784 22.8119Z" fill="#EDE3FC"/>
<path opacity="0.2" d="M6.14844 41.1787L7.35792 31.2706C7.59982 30.0623 8.32551 29.0956 9.77689 28.6123L52.5926 19.1875C52.8345 19.1875 53.3183 19.4291 53.3183 19.4291C11.4702 29.3373 9.53499 28.6123 6.14844 41.1787Z" fill="#EDE3FC"/>
<path d="M138.225 3.23749C139.434 3.23749 140.644 3.72081 141.611 4.44579L161.447 19.6705C162.414 20.3955 163.14 20.8788 164.108 21.3621L166.768 32.2369L164.108 51.3281H111.374L113.309 31.5119L111.374 3.47916H138.225V3.23749Z" fill="#9C95A6"/>
<path d="M113.794 5.17096H138.467C139.193 5.17096 140.161 5.41263 140.644 5.89595L160.48 21.1206C160.722 21.1206 160.722 21.3623 160.964 21.3623H115.003L113.794 5.17096Z" fill="#DDD3EA"/>
<path d="M74.3645 6.13742C75.574 4.20413 77.751 3.23749 80.17 3.23749H109.923L111.858 31.2702L109.923 51.0864H78.7186C77.9929 42.6283 71.9455 35.6201 63.9629 32.9618V23.537C63.9629 21.8454 64.4467 20.3955 65.4143 19.1872L74.3645 6.13742Z" fill="#9C95A6"/>
<path d="M75.8143 7.3459C76.7819 5.89593 78.2332 5.17096 79.9265 5.17096H107.745L108.954 21.604H65.8965L75.8143 7.3459Z" fill="#DDD3EA"/>
<path d="M124.919 24.262H116.211V27.1619H124.919V24.262Z" fill="#E1D7EF"/>
<path d="M74.6048 24.262H65.8965V27.1619H74.6048V24.262Z" fill="#E1D7EF"/>
<path d="M4.21343 40.9366V42.1449H9.53509C12.1959 42.1449 14.373 44.3199 14.373 46.9782L2.76204 46.4948C1.55256 46.4948 0.10118 45.2865 0.343076 44.0782C0.343076 43.8365 0.343076 43.5949 0.343076 43.3532C0.584972 41.9032 1.55257 40.9366 3.00395 40.9366H4.21343Z" fill="#E1D7EF"/>
<path d="M236.677 48.9118H243.692C244.417 48.9118 244.901 48.4285 244.901 47.9452L245.385 46.0119C245.627 45.2869 244.901 44.3203 244.176 44.3203H237.161C236.435 44.3203 235.951 44.8036 235.951 45.2869L235.467 47.2202C235.225 47.9452 235.951 48.9118 236.677 48.9118Z" fill="#E1D7EF"/>
<path d="M152.98 22.3291L157.093 24.2624L157.334 22.0875L153.706 18.7042L152.98 22.3291Z" fill="#A69FB0"/>
<path d="M151.77 16.0459H152.012C152.98 16.2876 153.947 17.0126 154.189 17.9792L154.673 20.1541C155.156 22.3291 153.221 24.504 151.044 24.2624H150.561L151.77 16.0459Z" fill="#A69FB0"/>
<path d="M181.524 53.0203H217.083L216.116 47.462C215.39 43.8371 213.213 41.1788 210.31 39.4872C208.859 38.7622 206.924 38.2789 205.23 38.2789H194.587C192.168 38.2789 189.991 39.0039 188.056 40.2122C185.395 41.9038 183.218 44.8038 182.734 48.187L181.524 53.0203Z" fill="#A49DAE"/>
<path d="M38.3213 52.7786H39.7726H40.9821L42.9173 53.0203H73.6381L72.6705 47.462C71.9449 44.0788 69.7678 41.1788 66.865 39.4872C65.4137 38.7622 63.4785 38.2789 61.5433 38.2789H50.8999C48.4809 38.2789 46.3039 39.0039 44.3687 40.2122C41.4659 41.9038 39.5307 44.8037 39.0469 48.4287L38.3213 52.7786Z" fill="#A49DAE"/>
<g opacity="0.75">
<path opacity="0.75" d="M130.482 5.89673L142.093 21.1214H132.901L121.29 5.89673H130.482Z" fill="white"/>
<path opacity="0.75" d="M134.593 5.8963L145.962 21.1209H143.06L131.69 5.8963H134.593Z" fill="white"/>
</g>
<g opacity="0.75">
<path opacity="0.75" d="M90.5709 5.89673L101.94 21.1214H92.9898L81.3789 5.89673H90.5709Z" fill="white"/>
<path opacity="0.75" d="M94.6856 5.8963L106.055 21.1209H103.152L91.541 5.8963H94.6856Z" fill="white"/>
</g>
<path opacity="0.2" d="M0.341797 43.3534C0.341797 43.5951 0.341797 43.8367 0.341797 44.0784C0.341797 45.2867 1.55128 46.495 2.76076 46.495L5.42164 46.7367C6.87302 49.1533 9.53387 50.8449 12.4366 50.8449L38.3196 52.5365H39.7709L42.9156 52.7782H73.6365H181.28H216.839H220.952L235.949 50.8449C237.642 50.6033 239.336 49.8783 240.303 48.4283H240.545C240.545 49.1533 241.029 49.6366 241.513 49.6366H244.174C244.899 49.6366 245.383 49.1533 245.625 48.4283L246.351 44.0784C246.351 43.8367 246.351 43.8367 246.351 43.5951L3.72834 32.962L3.24455 37.0702C3.00265 38.2785 3.48645 39.2452 3.97025 39.2452H4.21216V40.2118H3.24455C1.79317 40.9368 0.583694 41.9035 0.341797 43.3534Z" fill="#8E8796"/>
</svg>
