<svg width="269" height="104" viewBox="0 0 269 104" fill="none" xmlns="http://www.w3.org/2000/svg">
<path d="M4.53242 93.6449H14.6919C16.869 93.6449 18.5622 91.9533 18.5622 89.7784V48.6959C18.5622 46.521 16.869 44.8293 14.6919 44.8293H4.53242C2.35538 44.8293 0.662104 46.521 0.662104 48.6959V89.7784C0.42021 91.7116 2.35538 93.6449 4.53242 93.6449Z" fill="#AFA7BA"/>
<path d="M18.5635 79.8703H14.4512C13.2417 79.8703 12.0322 78.9037 12.0322 77.4537V60.5374C12.0322 59.3291 12.9998 58.1208 14.4512 58.1208H18.5635V79.8703Z" fill="#C1B9CD"/>
<path d="M253.685 68.9957C253.685 74.3122 256.829 78.6621 260.699 78.6621C264.57 78.6621 267.714 74.3122 267.714 68.9957C267.714 63.6791 264.57 59.3292 260.699 59.3292C256.829 59.3292 253.685 63.6791 253.685 68.9957Z" fill="#D8CFE6"/>
<path d="M264.813 58.3623H261.669V79.8701H264.813V58.3623Z" fill="#AFA7BA"/>
<path d="M14.9336 51.3543V103.553H262.152L261.668 59.3291C261.668 59.0875 261.668 58.6041 261.668 58.3625C261.184 55.2209 258.523 52.8043 255.379 52.5626L194.179 47.971H193.211L192.969 46.0377L186.438 11.4802C186.196 10.5135 185.954 9.78853 185.713 8.82188C183.777 3.98865 178.939 0.847046 173.618 0.847046H42.026C35.9786 0.847046 30.415 3.98865 27.0284 8.82188C26.0608 10.5135 25.0932 12.2051 24.6095 14.1384L15.6593 47.971L14.9336 51.3543Z" fill="#D0C7DD"/>
<path d="M133.947 12.4471H180.391C181.6 12.4471 182.568 13.4137 182.81 14.622L189.583 51.5962C189.583 51.8379 189.583 51.8379 189.583 52.0795V92.6786C189.583 94.1286 188.373 95.3369 186.922 95.3369H133.705C132.253 95.3369 131.044 94.1286 131.044 92.6786V15.1054C131.286 13.6554 132.495 12.4471 133.947 12.4471Z" fill="#AFA7BA"/>
<path d="M133.705 49.4212V15.1053C133.705 15.1053 133.705 14.8636 133.947 14.8636H180.391H180.633L186.922 49.1795H133.705V49.4212Z" fill="#DDD3EA"/>
<path d="M262.152 97.2701H14.9336V103.553H262.152V97.2701Z" fill="#AFA7BA"/>
<path d="M191.276 103.553C191.276 103.311 191.276 103.07 191.276 102.828C191.276 87.6032 203.613 75.0369 219.095 75.0369C234.334 75.0369 246.913 87.3616 246.913 102.828C246.913 103.07 246.913 103.311 246.913 103.553H191.276Z" fill="#A39BAD"/>
<path d="M32.834 103.553C32.834 103.311 32.834 103.07 32.834 102.828C32.834 87.6032 45.1707 75.0369 60.652 75.0369C76.1333 75.0369 88.47 87.3616 88.47 102.828C88.47 103.07 88.47 103.311 88.47 103.553H32.834Z" fill="#A39BAD"/>
<path d="M137.818 57.8793H145.075C146.042 57.8793 147.01 56.9126 147.01 55.946C147.01 54.7376 146.042 54.0126 145.075 54.0126H137.818C136.85 54.0126 135.883 54.9793 135.883 55.946C135.883 56.9126 136.85 57.8793 137.818 57.8793Z" fill="white"/>
<path d="M36.4625 67.7875H44.2032C46.6221 67.7875 48.5573 65.8543 48.5573 63.4376V59.8127C48.5573 57.3961 46.6221 55.4628 44.2032 55.4628H36.4625C34.0435 55.4628 32.1084 57.3961 32.1084 59.8127V63.4376C32.1084 65.8543 34.0435 67.7875 36.4625 67.7875Z" fill="#C4BCD0"/>
<path d="M194.18 47.9709C194.18 53.7708 198.776 58.1207 204.339 58.1207H261.669C261.185 54.9791 258.524 52.5625 255.38 52.3209L194.18 47.9709Z" fill="#AFA7BA"/>
<path d="M27.0293 8.82185H185.471C183.536 3.98864 178.698 0.847046 173.377 0.847046H41.785C35.9795 0.847046 30.4158 3.98864 27.0293 8.82185Z" fill="#AFA7BA"/>
<path d="M67.1834 51.3542L76.6173 14.6216C76.8592 13.1717 78.3106 12.205 79.5201 12.205H124.996C126.69 12.205 128.141 13.655 128.141 15.3466V91.9532C128.141 93.6448 126.69 95.0948 124.996 95.0948H94.0338C92.5824 95.0948 91.3729 94.1282 91.131 92.6782C89.1959 83.9784 79.2782 74.5536 69.8442 73.1037C68.3929 72.862 67.1834 71.6537 67.1834 69.9621V52.0791C66.9415 51.8375 66.9415 51.5958 67.1834 51.3542Z" fill="#AFA7BA"/>
<path d="M70.0869 49.4212L78.7953 15.3469C78.7953 15.1052 79.0372 14.8636 79.521 14.8636H124.998C125.481 14.8636 125.723 15.1053 125.723 15.5886V49.4212H70.0869Z" fill="#DDD3EA"/>
<path d="M72.2643 57.8793H79.5212C80.4887 57.8793 81.4563 56.9126 81.4563 55.946C81.4563 54.7376 80.4887 54.0126 79.5212 54.0126H72.2643C71.2967 54.0126 70.3291 54.9793 70.3291 55.946C70.3291 56.9126 71.2967 57.8793 72.2643 57.8793Z" fill="white"/>
<g opacity="0.75">
<path opacity="0.75" d="M151.364 15.8303L176.037 48.213H163.458L138.543 15.8303H151.364Z" fill="white"/>
<path opacity="0.75" d="M155.96 15.8301L180.633 48.2128H177.247L152.815 15.8301H155.96Z" fill="white"/>
</g>
<g opacity="0.75">
<path opacity="0.75" d="M94.2755 15.8303L118.949 48.213H106.37L81.4551 15.8303H94.2755Z" fill="white"/>
<path opacity="0.75" d="M99.112 15.8301L123.543 48.2128H120.399L95.7256 15.8301H99.112Z" fill="white"/>
</g>
<path d="M42.2686 15.8301C42.2686 16.5551 42.7524 17.0384 43.478 17.0384H57.992C58.7176 17.0384 59.2014 16.5551 59.2014 15.8301C59.2014 15.1051 58.7176 14.6218 57.992 14.6218H43.478C42.7524 14.6218 42.2686 15.1051 42.2686 15.8301Z" fill="#AFA7BA"/>
<path d="M41.3008 19.938C41.3008 20.663 41.7846 21.1463 42.5103 21.1463H57.0241C57.7498 21.1463 58.2336 20.663 58.2336 19.938C58.2336 19.2131 57.7498 18.7297 57.0241 18.7297H42.5103C41.7846 18.7297 41.3008 19.2131 41.3008 19.938Z" fill="#AFA7BA"/>
<path d="M40.334 24.047C40.334 24.772 40.8178 25.2553 41.5435 25.2553H56.0574C56.7831 25.2553 57.2669 24.772 57.2669 24.047C57.2669 23.3221 56.7831 22.8387 56.0574 22.8387H41.5435C40.8178 22.8387 40.334 23.3221 40.334 24.047Z" fill="#AFA7BA"/>
<path d="M39.3633 28.155C39.3633 28.8799 39.8471 29.3633 40.5728 29.3633H55.0866C55.8123 29.3633 56.2961 28.8799 56.2961 28.155C56.2961 27.43 55.8123 26.9467 55.0866 26.9467H40.5728C39.8471 26.9467 39.3633 27.43 39.3633 28.155Z" fill="#AFA7BA"/>
<path d="M38.3984 32.2632C38.3984 32.9882 38.8822 33.4715 39.6079 33.4715H54.1216C54.8473 33.4715 55.3311 32.9882 55.3311 32.2632C55.3311 31.5382 54.8473 31.0549 54.1216 31.0549H39.6079C38.8822 31.0549 38.3984 31.5382 38.3984 32.2632Z" fill="#AFA7BA"/>
<path d="M37.1885 36.3713C37.1885 37.0963 37.6723 37.5796 38.3979 37.5796H52.9114C53.6371 37.5796 54.1208 37.0963 54.1208 36.3713C54.1208 35.6463 53.6371 35.163 52.9114 35.163H38.3979C37.9141 35.163 37.1885 35.6463 37.1885 36.3713Z" fill="#AFA7BA"/>
<path d="M36.2197 40.4795C36.2197 41.2045 36.7035 41.6878 37.4292 41.6878H51.9432C52.6689 41.6878 53.1527 41.2045 53.1527 40.4795C53.1527 39.7546 52.6689 39.2712 51.9432 39.2712H37.4292C36.9454 39.2712 36.2197 39.7546 36.2197 40.4795Z" fill="#AFA7BA"/>
<path opacity="0.2" d="M262.152 93.1618V97.27V103.553H14.934V97.27V93.4034H14.6921H4.53247C2.3554 93.4034 0.662109 91.7118 0.662109 89.5369V74.0706L262.152 93.1618Z" fill="#8E8796"/>
<path d="M251.751 100.412H263.362C266.507 100.412 268.925 97.9952 268.925 94.8536C268.925 91.712 266.507 89.0537 263.362 89.0537H251.751V100.412Z" fill="#E1D7EF"/>
<path d="M12.0323 100.412H23.6434V89.0537H12.0323C8.88769 89.0537 6.46875 91.4703 6.46875 94.6119C6.46875 97.9952 8.88769 100.412 12.0323 100.412Z" fill="#E1D7EF"/>
<path d="M190.067 53.0462C191.035 55.7045 193.212 53.7712 192.244 51.5962L188.858 45.0714L187.648 48.4546L190.067 53.0462Z" fill="#AFA7BA"/>
<path d="M185.229 55.2209C186.923 55.2209 188.374 54.0126 188.616 52.3209L189.825 42.4128C190.309 38.5462 186.923 38.0629 186.923 38.0629L185.229 55.2209Z" fill="#C4BCD0"/>
</svg>
