<svg width="1342" height="125" viewBox="0 0 1342 125" fill="none" xmlns="http://www.w3.org/2000/svg">
<path d="M1334.3 59.932C1332.61 59.932 1330.91 60.657 1329.7 61.6236C1327.77 57.5154 1321.72 54.6155 1314.7 54.6155C1310.35 54.6155 1306.24 55.8238 1303.34 57.5154C1301.4 53.8905 1297.77 51.4739 1293.42 51.4739C1290.27 51.4739 1287.61 52.6822 1285.68 54.6155C1281.56 48.5739 1273.34 44.4657 1263.66 44.4657C1256.89 44.4657 1250.84 46.399 1246.49 49.7822C1242.86 39.8741 1233.19 32.6243 1222.06 32.6243C1210.93 32.6243 1201.26 39.6324 1197.63 49.5406C1195.69 48.5739 1193.76 48.0906 1191.58 48.0906C1183.6 48.0906 1177.07 54.6155 1177.07 62.5903C1177.07 64.0402 1177.31 65.2486 1177.55 66.4569H1197.14H1205.61H1239.96H1247.22H1283.26H1288.1H1299.95H1304.55H1328.25H1330.67H1341.8V66.2152C1341.07 62.8319 1338.17 59.932 1334.3 59.932Z" fill="#F4EBFF"/>
<path d="M1020.32 51.7156C1018.14 51.7156 1015.97 52.6823 1014.51 53.8906C1013.3 44.2241 1005.08 36.491 994.921 36.491C986.212 36.491 978.955 42.2908 976.295 50.024C973.876 45.9158 969.522 43.2575 964.442 43.2575C957.91 43.2575 952.589 47.8491 951.137 53.6489C949.686 52.4406 947.993 51.7156 946.057 51.7156C941.461 51.7156 937.833 55.3405 937.833 59.9321C937.833 60.8988 938.075 61.8654 938.317 62.5904H952.347H954.04H976.778H977.262H1012.34H1013.79H1029.03C1029.27 61.8654 1029.51 60.8988 1029.51 59.9321C1029.03 55.5822 1025.16 51.7156 1020.32 51.7156Z" fill="#F4EBFF"/>
<path d="M82.4867 17.8829C80.3097 17.8829 78.1326 18.8495 76.6812 20.0578C75.4717 10.3914 67.2473 2.6582 57.0876 2.6582C48.3793 2.6582 41.1224 8.45807 38.4616 16.1912C36.0426 12.083 31.6885 9.42472 26.6086 9.42472C20.0774 9.42472 14.7557 14.0163 13.3043 19.8162C11.8529 18.6078 10.1597 17.8829 8.22449 17.8829C3.62845 17.8829 0 21.5078 0 26.0993C0 27.066 0.241898 28.0326 0.483795 28.7576H14.5138H16.2071H38.9453H39.4291H74.5042H75.9555H91.195C91.4369 28.0326 91.6788 27.066 91.6788 26.0993C91.195 21.7494 87.3247 17.8829 82.4867 17.8829Z" fill="#F4EBFF"/>
<path d="M453.796 67.1817C451.861 67.1817 449.926 67.9067 448.717 69.115C446.54 64.5235 439.766 61.3819 431.542 61.3819C426.462 61.3819 421.866 62.5902 418.721 64.7651C416.544 60.6569 412.432 57.757 407.352 57.757C403.966 57.757 400.821 59.2069 398.402 61.3819C393.806 54.6154 384.372 50.0238 373.487 50.0238C365.988 50.0238 358.973 52.1987 353.893 56.0653C349.781 44.7072 338.896 36.7324 326.075 36.7324C313.496 36.7324 302.611 44.7072 298.257 55.8237C296.08 54.857 293.903 54.3737 291.242 54.3737C282.05 54.3737 274.793 61.8652 274.793 70.8067C274.793 72.2566 275.035 73.7066 275.519 75.1566H297.773H307.207H346.152H354.377H395.016H400.337H413.642H418.721H445.572H448.233H460.811V74.9149C461.295 70.565 457.909 67.1817 453.796 67.1817Z" fill="#F4EBFF"/>
<path d="M837.929 115.998C835.752 115.998 833.817 116.964 832.365 118.173C829.946 113.339 822.689 109.714 813.981 109.714C808.418 109.714 803.58 111.164 800.193 113.339C797.774 108.989 793.178 105.848 787.856 105.848C784.228 105.848 780.841 107.298 778.181 109.714C773.343 102.465 763.183 97.3897 751.33 97.3897C743.106 97.3897 735.607 99.8063 730.285 103.915C725.689 91.5898 714.078 82.89 700.29 82.89C686.502 82.89 674.891 91.5898 670.295 103.673C668.118 102.706 665.457 101.981 662.796 101.981C652.878 101.981 644.896 109.956 644.896 119.864C644.896 121.556 645.137 123.006 645.621 124.697H669.569H679.729H721.819H730.527H774.552H780.358H794.871H800.435H829.463H832.365H845.912V124.456C846.153 119.623 842.525 115.998 837.929 115.998Z" fill="#F4EBFF"/>
<path d="M681.18 25.6161C679.486 25.6161 678.035 26.3411 676.826 27.3077C674.89 23.4412 669.327 20.7829 662.554 20.7829C658.441 20.7829 654.571 21.7495 651.91 23.6828C650.217 20.2996 646.588 17.8829 642.476 17.8829C639.573 17.8829 636.913 19.0912 634.977 20.7829C631.107 15.2247 623.366 11.1164 614.174 11.1164C607.885 11.1164 602.079 13.0497 597.725 16.1913C594.339 6.76652 585.147 0 574.503 0C563.86 0 554.91 6.76652 551.281 16.1913C549.588 15.4663 547.653 14.983 545.476 14.983C537.735 14.983 531.688 21.2662 531.688 28.7577C531.688 29.966 531.929 31.1743 532.171 32.3826H550.797H558.78H591.436H598.209H632.317H636.913H648.04H652.394H674.89H677.067H687.469V32.141C687.469 28.516 684.566 25.6161 681.18 25.6161Z" fill="#F4EBFF"/>
</svg>
