<svg width="98" height="61" viewBox="0 0 98 61" fill="none" xmlns="http://www.w3.org/2000/svg">
<path d="M97.1215 45.4323C96.3958 49.7822 94.9444 54.6154 93.2511 60.1736C92.7673 60.1736 92.5254 60.1737 92.0416 59.932C91.7997 59.932 91.5578 59.932 91.3159 59.932C89.3808 59.6904 87.2037 59.207 85.2685 58.9653C79.9468 57.757 74.6251 56.0654 69.3034 53.8905C67.3682 53.1655 65.433 52.1988 63.4978 51.2322C60.837 50.0239 58.1761 48.3322 55.5153 46.8822C55.5153 46.8822 24.0687 47.3656 11.0063 44.224C5.68456 43.0157 1.81423 38.6658 0.846642 33.3492C-0.120945 28.0327 -0.604745 23.9244 1.33043 17.8828C1.81422 15.9495 2.78181 13.7746 3.74939 11.358C5.20077 7.97475 7.37783 4.59148 10.2806 0.966553H11.2482L24.0687 3.62481L38.5825 6.52478C41.7271 7.0081 79.7049 16.4329 92.2835 26.5827C93.2511 27.3077 94.2187 28.2743 94.9444 28.9993C95.912 30.2076 96.6377 31.4159 97.1215 32.6242C98.3309 36.0075 98.089 40.3574 97.1215 45.4323Z" fill="#EA4A49"/>
</svg>
