<svg width="33" height="33" viewBox="0 0 33 33" fill="none" xmlns="http://www.w3.org/2000/svg">
<path d="M6.74023 16.8198C6.74023 22.378 11.3363 26.9696 16.8999 26.9696C22.4635 26.9696 27.0596 22.378 27.0596 16.8198C27.0596 11.2616 22.4635 6.67004 16.8999 6.67004C11.0944 6.67004 6.74023 11.2616 6.74023 16.8198Z" fill="#E1D7EF"/>
<path d="M0.935547 16.8202C0.935547 25.7617 8.19246 32.7698 16.9007 32.7698C25.8509 32.7698 32.8659 25.52 32.8659 16.8202C32.8659 7.87875 25.609 0.870605 16.9007 0.870605C7.95056 0.870605 0.935547 7.87875 0.935547 16.8202ZM6.98296 16.8202C6.98296 11.262 11.3371 6.91213 16.9007 6.91213C22.4644 6.91213 26.8185 11.262 26.8185 16.8202C26.8185 22.3784 22.4644 26.7283 16.9007 26.7283C11.3371 26.7283 6.98296 22.3784 6.98296 16.8202Z" fill="#9891A1"/>
<path d="M9.40039 16.8201C9.40039 20.9284 12.787 24.3117 16.8992 24.3117C21.0114 24.3117 24.398 20.9284 24.398 16.8201C24.398 12.7119 21.0114 9.32861 16.8992 9.32861C12.787 9.32861 9.40039 12.7119 9.40039 16.8201Z" fill="white"/>
<path d="M12.3047 16.8205C12.3047 19.2371 14.2399 21.4121 16.9008 21.4121C19.3197 21.4121 21.4968 19.4788 21.4968 16.8205C21.4968 14.4039 19.5616 12.2289 16.9008 12.2289C14.4818 12.2289 12.3047 14.4039 12.3047 16.8205Z" fill="#E1D7EF"/>
<path opacity="0.5" d="M20.7688 8.60352C22.2202 9.3285 23.6716 10.5368 24.6391 11.9868L16.8984 16.5784L20.7688 8.60352Z" fill="white"/>
<path opacity="0.5" d="M16.9009 16.8201L13.0305 25.0367C11.3372 24.3117 10.1277 23.1034 9.16016 21.6534L16.9009 16.8201Z" fill="white"/>
</svg>
