<svg width="51" height="50" viewBox="0 0 51 50" fill="none" xmlns="http://www.w3.org/2000/svg">
<path d="M12.3477 25.3447C12.3477 32.5945 18.1532 38.3944 25.41 38.3944C32.6669 38.3944 38.4725 32.5945 38.4725 25.3447C38.4725 18.0948 32.6669 12.295 25.41 12.295C18.1532 12.0533 12.3477 18.0948 12.3477 25.3447Z" fill="#9891A1"/>
<path d="M0.979492 25.3449C0.979492 38.8779 12.1067 49.7527 25.6529 49.7527C39.1992 49.7527 50.0845 38.6363 50.0845 25.1032C50.0845 11.5702 38.9572 0.695435 25.411 0.695435C11.8648 0.695435 0.979492 11.8118 0.979492 25.3449ZM10.4135 25.3449C10.4135 16.8867 17.1865 10.1202 25.411 10.1202C33.8774 10.1202 40.4087 16.8868 40.6506 25.1032C40.6506 33.3197 33.8774 40.0862 25.6529 40.3279C17.1865 40.3279 10.4135 33.5614 10.4135 25.3449Z" fill="#9891A1"/>
<path d="M7.99316 25.3445C7.99316 35.011 15.7338 42.7441 25.4097 42.7441C35.0856 42.7441 42.8263 35.011 42.8263 25.3445C42.8263 15.678 35.0856 7.94489 25.4097 7.94489C15.9757 7.94489 7.99316 15.678 7.99316 25.3445ZM9.92831 25.3445C9.92831 16.8864 16.9433 9.87818 25.4097 9.87818C33.8761 9.87818 40.8912 16.8864 40.8912 25.3445C40.8912 33.8027 33.8761 40.8109 25.4097 40.8109C16.9433 40.8109 9.92831 33.8027 9.92831 25.3445Z" fill="white"/>
<path d="M14.7656 25.3444C14.7656 31.1443 19.6035 35.9775 25.409 35.9775C31.2145 35.9775 36.0525 31.1443 36.0525 25.3444C36.0525 19.5445 31.2145 14.7113 25.409 14.7113C19.6035 14.7113 14.7656 19.3029 14.7656 25.3444ZM18.8779 25.3444C18.8779 21.7195 21.7806 18.5779 25.6509 18.5779C29.2794 18.5779 32.4241 21.4778 32.4241 25.3444C32.4241 28.9693 29.5213 32.1109 25.6509 32.1109C21.7806 31.8692 18.8779 28.9693 18.8779 25.3444Z" fill="white"/>
<path d="M18.8779 25.3445C18.8779 28.9694 21.7807 32.111 25.6511 32.111C29.2795 32.111 32.4243 29.2111 32.4243 25.3445C32.4243 21.7196 29.5214 18.578 25.6511 18.578C21.7807 18.578 18.8779 21.4779 18.8779 25.3445ZM22.9902 22.6863C22.5064 23.1696 22.0226 23.1696 21.5388 22.6863C21.055 22.2029 21.055 21.7196 21.5388 21.2363C22.0226 20.753 22.5064 20.753 22.9902 21.2363C23.2321 21.7196 23.2321 22.4446 22.9902 22.6863ZM26.1349 21.2363C26.1349 21.4779 25.893 21.7196 25.6511 21.7196C25.4092 21.7196 25.1673 21.4779 25.1673 21.2363C25.1673 20.9946 25.4092 20.753 25.6511 20.753C25.893 20.5113 26.1349 20.753 26.1349 21.2363ZM29.2795 22.6863C28.7957 23.1696 28.3119 23.1696 27.8281 22.6863C27.3443 22.2029 27.3443 21.7196 27.8281 21.2363C28.3119 20.753 28.7957 20.753 29.2795 21.2363C29.7633 21.7196 29.7633 22.4446 29.2795 22.6863ZM29.5215 25.8278C29.2796 25.8278 29.0376 25.5862 29.0376 25.3445C29.0376 25.1028 29.2796 24.8612 29.5215 24.8612C29.7634 24.8612 30.0053 25.1028 30.0053 25.3445C30.2472 25.5862 30.0053 25.8278 29.5215 25.8278ZM28.0701 27.7611C28.5539 27.2778 29.0377 27.2778 29.5215 27.7611C30.0053 28.2444 30.0053 28.7278 29.5215 29.2111C29.0377 29.6944 28.5539 29.6944 28.0701 29.2111C27.5863 28.7278 27.5863 28.2444 28.0701 27.7611ZM24.9254 29.4527C24.9254 29.2111 25.1673 28.9694 25.4092 28.9694C25.6511 28.9694 25.893 29.2111 25.893 29.4527C25.893 29.6944 25.6511 29.9361 25.4092 29.9361C25.1673 29.9361 24.9254 29.6944 24.9254 29.4527ZM22.9902 25.3445C22.9902 23.8945 24.1997 22.6863 25.6511 22.6863C27.1025 22.6863 28.312 23.8945 28.312 25.3445C28.312 26.7945 27.1025 28.0028 25.893 28.0028C23.9578 27.7611 22.9902 26.7945 22.9902 25.3445ZM21.5388 27.7611C22.0226 27.2778 22.5064 27.2778 22.9902 27.7611C23.474 28.2444 23.474 28.7278 22.9902 29.2111C22.5064 29.6944 22.0226 29.6944 21.5388 29.2111C21.2969 28.7278 21.2969 28.2444 21.5388 27.7611ZM20.8131 25.3445C20.8131 25.1028 21.055 24.8612 21.2969 24.8612C21.5388 24.8612 21.7807 25.1028 21.7807 25.3445C21.7807 25.5862 21.5388 25.8278 21.2969 25.8278C21.055 25.8278 20.8131 25.5862 20.8131 25.3445Z" fill="#E1D7EF"/>
<path d="M9.92871 25.3433C9.92871 33.8014 16.9437 40.8096 25.41 40.8096C33.8764 40.8096 40.8915 33.8014 40.8915 25.3433C40.8915 16.8851 33.8764 9.87695 25.41 9.87695C16.9437 9.87695 9.92871 16.6435 9.92871 25.3433ZM15.7342 19.5434C15.2504 20.2684 14.2828 20.5101 13.5572 20.0267C12.8315 19.5434 12.3477 18.5768 12.8315 17.8518C13.3153 17.1268 14.2829 16.8851 15.0085 17.3684C15.7342 17.8518 15.9761 18.8184 15.7342 19.5434ZM25.41 14.7102C31.2156 14.7102 36.0535 19.5434 36.0535 25.3433C36.0535 31.1432 31.2156 35.9764 25.41 35.9764C19.6045 35.9764 14.7666 31.1432 14.7666 25.3433C14.7666 19.3017 19.6045 14.7102 25.41 14.7102ZM19.8465 15.4352C19.1208 15.9185 18.1532 15.4352 17.6694 14.7102C17.1856 13.9852 17.4275 13.0185 18.1532 12.5352C18.8789 12.0519 19.8465 12.5352 20.3303 13.2602C20.5722 13.9852 20.5722 14.9519 19.8465 15.4352ZM26.8614 12.2936C26.8614 13.2602 26.1357 13.9852 25.41 13.9852C24.6844 13.9852 23.9587 13.2602 23.9587 12.2936C23.9587 11.3269 24.6844 10.6019 25.41 10.6019C26.3776 10.6019 26.8614 11.3269 26.8614 12.2936ZM33.3927 14.7102C32.9089 15.4352 31.9413 15.9185 31.2156 15.4352C30.4899 14.9519 30.248 13.9852 30.7318 13.2602C31.2156 12.5352 32.1832 12.0519 32.9088 12.5352C33.6345 12.7769 33.8765 13.7435 33.3927 14.7102ZM37.5048 20.0267C36.7792 20.5101 35.8116 20.2684 35.3278 19.5434C34.844 18.8184 35.3278 17.8518 36.0535 17.3684C36.7792 16.8851 37.7468 17.1268 38.2306 17.8518C38.7144 18.5768 38.4724 19.5434 37.5048 20.0267ZM38.4725 26.7933C37.5049 26.7933 36.7792 26.0683 36.7792 25.3433C36.7792 24.6183 37.5049 23.8933 38.4725 23.8933C39.4401 23.8933 40.1657 24.6183 40.1657 25.3433C40.1657 26.0683 39.4401 26.7933 38.4725 26.7933ZM35.3278 30.9015C35.8116 30.1765 36.7792 29.9349 37.5048 30.4182C38.2305 30.9015 38.7144 31.8681 38.2306 32.5931C37.7468 33.3181 36.7792 33.5598 36.0535 33.0764C35.3278 32.5931 34.844 31.6265 35.3278 30.9015ZM31.2156 35.0097C31.9413 34.5264 32.9089 35.0097 33.3927 35.7347C33.8765 36.4597 33.6345 37.4263 32.9088 37.9097C32.1832 38.393 31.2156 37.9097 30.7318 37.1847C30.248 36.4597 30.4899 35.4931 31.2156 35.0097ZM23.9587 38.393C23.9587 37.4264 24.6844 36.7014 25.41 36.7014C26.1357 36.7014 26.8614 37.4264 26.8614 38.393C26.8614 39.3597 26.1357 40.0846 25.41 40.0846C24.6844 40.0846 23.9587 39.3597 23.9587 38.393ZM17.6694 35.9764C18.1532 35.2514 19.1208 34.7681 19.8465 35.2514C20.5722 35.7347 20.8141 36.7014 20.3303 37.4263C19.8465 38.1513 18.8789 38.6347 18.1532 38.1513C17.4275 37.668 17.1856 36.7014 17.6694 35.9764ZM13.3152 30.6598C14.0409 30.1765 15.0086 30.4182 15.4924 31.1432C15.9762 31.8682 15.4923 32.8348 14.7666 33.3181C14.0409 33.8014 13.0734 33.5598 12.5896 32.8348C12.3477 31.8681 12.5896 31.1431 13.3152 30.6598ZM10.6544 25.3433C10.6544 24.6183 11.3801 23.8933 12.3477 23.8933C13.3153 23.8933 14.041 24.6183 14.041 25.3433C14.041 26.0683 13.3153 26.7933 12.3477 26.7933C11.3801 26.7933 10.6544 26.0683 10.6544 25.3433Z" fill="#E1D7EF"/>
</svg>
