<svg width="45" height="45" viewBox="0 0 45 45" fill="none" xmlns="http://www.w3.org/2000/svg">
<path d="M4.28108 23.2107C4.28108 23.694 4.28108 23.9357 4.28108 24.419H3.3135C3.3135 24.419 2.82971 24.6607 2.58781 25.144L2.34591 25.3857C2.34591 26.1107 2.58781 26.594 2.58781 27.319V27.5606C2.58781 27.5606 2.58781 27.5606 2.8297 27.319C3.0716 27.0773 3.3135 26.8356 3.3135 26.8356L4.76488 26.594C4.76488 27.0773 5.00677 27.319 5.00677 27.8023L4.28108 28.0439H4.03919C4.03919 28.0439 4.03919 28.044 3.79729 28.2856C3.79729 28.5273 3.55539 28.5273 3.3135 28.7689L3.0716 29.0106C3.3135 29.7356 3.55539 30.4606 3.79729 31.1855C3.79729 31.1855 3.79729 30.9439 4.03919 30.9439C4.28108 30.7022 4.28108 30.4606 4.28108 30.4606L5.49057 29.9772C5.73246 30.2189 5.73246 30.7022 5.97436 30.9439L5.00677 31.4272C5.00677 31.4272 4.76488 31.9105 4.52298 32.1522C4.52298 32.3939 4.52298 32.3938 4.28108 32.3938C4.52298 33.1188 5.00677 33.6022 5.49057 34.3271V34.0855C5.49057 34.0855 5.49057 34.0855 5.49057 33.8438C5.49057 33.6022 5.73246 33.6022 5.73246 33.6022L6.94194 32.8772C7.18384 33.1188 7.42574 33.6022 7.66763 33.8438L6.94194 34.3271C6.94194 34.3271 6.70005 34.8105 6.70005 35.2938C6.70005 35.5354 6.70005 35.5354 6.70005 35.5354C7.18384 36.0188 7.66763 36.7437 8.15143 37.2271V36.9854C8.15143 36.7438 8.39332 36.5021 8.39332 36.5021L9.36091 35.5354C9.60281 35.7771 9.8447 36.0188 10.0866 36.2604L9.36091 36.9854C9.36091 36.9854 9.36091 37.4687 9.11901 37.9521C9.11901 38.1937 9.11901 38.1937 9.11901 38.1937C9.60281 38.6771 10.3285 39.1604 10.8123 39.6437V39.402C10.8123 39.1604 10.8123 38.9187 10.8123 38.9187L11.538 37.9521C11.7799 38.1937 12.0218 38.4354 12.5056 38.6771L12.0218 39.402C12.0218 39.402 12.0218 39.8853 12.0218 40.3687C12.0218 40.6103 12.0218 40.6103 12.0218 40.6103C12.7475 41.0937 13.2313 41.3353 13.9569 41.8187V41.577C13.9569 41.3353 13.9569 41.0937 13.9569 41.0937L14.6826 39.8854C14.9245 40.127 15.4083 40.127 15.6502 40.3687L15.1664 41.3353V41.577C15.1664 41.8186 15.1664 42.0603 15.1664 42.302C15.1664 42.5436 15.1664 42.5436 15.1664 42.5436C15.8921 42.7853 16.6178 43.0269 17.3435 43.2686V43.027C17.3435 42.7853 17.1016 42.5436 17.1016 42.5436L17.5854 41.3353C17.8273 41.3353 18.3111 41.577 18.553 41.577L18.3111 42.5436C18.3111 42.5436 18.553 43.027 18.553 43.5103C18.553 43.5103 18.553 43.5103 18.553 43.7519C19.2787 43.9936 20.0044 43.9936 20.73 44.2353V43.9936C20.4882 43.7519 20.4882 43.5103 20.4882 43.5103L20.73 42.0603C21.2138 42.0603 21.4557 42.0603 21.9395 42.302V43.2686C21.9395 43.2686 22.1814 43.7519 22.4233 44.2353C22.4233 44.4769 22.4233 44.4769 22.6652 44.4769C22.9071 44.4769 22.9071 44.4769 23.149 44.4769C23.6328 44.4769 24.3585 44.4769 24.8423 44.4769C24.8423 44.4769 24.8423 44.2353 24.6004 44.2353C24.3585 43.9936 24.3585 43.7519 24.3585 43.7519V42.302C24.8423 42.302 25.0842 42.302 25.568 42.302V43.2686C25.568 43.2686 25.8099 43.7519 26.2937 43.9936L26.5356 44.2353C27.2613 44.2353 27.9869 43.9936 28.7126 43.7519C28.7126 43.7519 28.4707 43.7519 28.4707 43.5103C28.2288 43.2686 27.9869 43.027 27.9869 43.027L27.745 41.577C28.2288 41.577 28.4707 41.3353 28.9545 41.3353L29.1964 42.302C29.1964 42.302 29.1964 42.3019 29.4383 42.5436C29.6802 42.5436 29.6802 42.7853 29.9221 43.027L30.164 43.2686C30.8897 43.0269 31.6154 42.7853 32.3411 42.5436C32.3411 42.5436 32.0992 42.5436 32.0992 42.302C31.8573 42.0603 31.6154 42.0603 31.6154 42.0603L31.1316 40.852C31.3735 40.6103 31.8573 40.6103 32.0992 40.3687L32.583 41.3353C32.583 41.3353 33.0668 41.577 33.3087 41.8187C33.5506 41.8187 33.5506 41.8186 33.5506 42.0603C34.2763 41.8186 34.76 41.3353 35.4857 40.852H35.2438C35.2438 40.852 35.2438 40.852 35.0019 40.852C34.76 40.852 34.76 40.6103 34.76 40.6103L34.0344 39.402C34.2763 39.1604 34.76 38.9187 35.0019 38.6771L35.4857 39.402C35.4857 39.402 35.9695 39.6437 36.4533 39.6437C36.6952 39.6437 36.6952 39.6437 36.6952 39.6437C37.179 39.402 37.4209 39.1604 37.6628 38.6771C37.9047 38.4354 38.1466 38.4354 38.3885 38.1937H38.1466C37.9047 38.1937 37.6628 37.9521 37.6628 37.9521L36.2114 36.7438C36.4533 36.5021 36.6952 36.2604 36.9371 36.0188L37.6628 36.7438C37.6628 36.7438 38.1466 36.7438 38.6304 36.9854C38.8723 36.9854 38.8723 36.9854 38.8723 36.9854C39.3561 36.5021 39.8399 35.7771 40.3237 35.2938H40.0818C39.8399 35.2938 39.598 35.2938 39.598 35.2938L38.3885 34.3271C38.6304 34.0855 38.8723 33.8438 39.1142 33.3605L39.8399 33.8438C39.8399 33.8438 40.3237 33.8438 40.8075 33.8438C41.0494 33.8438 41.0494 33.8438 41.0494 33.8438C41.5331 33.1188 41.775 32.6355 42.2588 31.9105H42.0169C41.775 31.9105 41.5332 31.9105 41.5332 31.9105L40.3237 31.1855C40.5656 30.9439 40.5656 30.4606 40.8075 30.2189L41.775 30.7022H42.0169C42.2588 30.7022 42.5007 30.7022 42.7426 30.7022C42.9845 30.7022 42.9845 30.7022 42.9845 30.7022C43.2264 29.9772 43.4683 29.2523 43.7102 28.5273H43.4683C43.2264 28.5273 42.9845 28.7689 42.9845 28.7689L41.775 28.2856C41.775 28.044 42.0169 27.5606 42.0169 27.319L42.9845 27.5606C42.9845 27.5606 43.4683 27.319 43.9521 27.319C43.9521 27.319 43.9521 27.319 44.194 27.319C44.4359 26.594 44.4359 25.869 44.6778 25.144H44.4359C44.194 25.3857 43.9521 25.3857 43.9521 25.3857H42.2588C42.2588 24.9024 42.2588 24.6607 42.5007 24.1774H43.4683C43.4683 24.1774 43.9521 23.9357 44.4359 23.6941C44.6778 23.6941 44.6778 23.6941 44.6778 23.4524C44.6778 23.2107 44.6778 23.2107 44.6778 22.9691C44.6778 22.4858 44.6778 21.7608 44.6778 21.2775C44.6778 21.2775 44.4359 21.2774 44.4359 21.5191C44.194 21.7608 43.9521 21.7608 43.9521 21.7608H42.5007C42.5007 21.2775 42.5007 21.0358 42.5007 20.5525H43.4683C43.4683 20.5525 43.9521 20.3108 44.194 19.8275L44.4359 19.5858C44.4359 18.8608 44.194 18.1359 43.9521 17.4109C43.9521 17.4109 43.9521 17.6525 43.7102 17.6525C43.4683 17.8942 43.2264 18.1359 43.2264 18.1359L41.775 18.3775C41.775 17.8942 41.5332 17.6525 41.5332 17.1692L42.5007 16.9276C42.5007 16.9276 42.5007 16.9275 42.7426 16.6859C42.7426 16.4442 42.9845 16.4442 43.2264 16.2026L43.4683 15.9609C43.2264 15.2359 42.9845 14.5109 42.7426 13.786C42.7426 13.786 42.7426 14.0276 42.5007 14.0276C42.2588 14.2693 42.2588 14.5109 42.2588 14.5109L41.0494 14.9943C40.8075 14.7526 40.8075 14.2693 40.5656 14.0276L41.5332 13.5443C41.5332 13.5443 41.775 13.061 42.0169 12.8193C42.0169 12.5777 42.0169 12.5776 42.2588 12.5776C42.0169 11.8527 41.5331 11.3693 41.0494 10.6443V10.886C41.0494 10.886 41.0494 10.886 41.0494 11.1277C41.0494 11.3693 40.8075 11.3693 40.8075 11.3693L39.598 12.5776C39.3561 12.336 39.1142 11.8527 38.8723 11.611L39.598 11.1277C39.598 11.1277 39.8399 10.6444 39.8399 10.161C39.8399 9.91937 39.8399 9.91936 39.8399 9.91936C39.3561 9.43604 38.8723 8.71106 38.3885 8.22774C38.3885 8.4694 38.3885 8.46941 38.3885 8.46941C38.3885 8.71108 38.1466 8.95273 38.1466 8.95273L37.179 9.91936C36.9371 9.6777 36.6952 9.43607 36.4533 9.1944L37.179 8.46941C37.179 8.46941 37.179 7.98607 37.4209 7.50275C37.4209 7.26109 37.4209 7.26111 37.4209 7.26111C36.9371 6.77779 36.2114 6.29445 35.7276 5.81113V6.0528C35.7276 6.29446 35.7276 6.53612 35.7276 6.53612L35.0019 7.50275C34.76 7.26109 34.5182 7.01945 34.0344 6.77779L34.5182 6.0528C34.5182 6.0528 34.5182 5.56946 34.5182 5.08614C34.5182 4.84448 34.5182 4.8445 34.5182 4.8445C33.7925 4.36118 33.3087 4.11951 32.583 3.63619V3.87783C32.583 4.11949 32.583 4.36118 32.583 4.36118L31.8573 5.56949C31.6154 5.32783 31.1316 5.3278 30.8897 5.08614L31.3735 4.11951V3.87783C31.3735 3.63617 31.3735 3.39454 31.3735 3.15288C31.3735 2.91122 31.3735 2.9112 31.3735 2.9112C30.6478 2.66954 29.9221 2.42787 29.1964 2.18621V2.42789C29.1964 2.66955 29.4383 2.9112 29.4383 2.9112L28.9545 4.11951C28.7126 4.11951 28.2288 3.87783 27.9869 3.87783L28.2288 2.9112C28.2288 2.9112 27.9869 2.42789 27.9869 1.94457C27.9869 1.94457 27.9869 1.94456 27.9869 1.7029C27.2613 1.46123 26.5356 1.46124 25.8099 1.21958V1.46122C26.0518 1.70288 26.0518 1.94457 26.0518 1.94457L25.8099 3.39452C25.3261 3.39452 25.0842 3.39454 24.6004 3.15288V2.18621C24.6004 2.18621 24.3585 1.7029 24.1166 1.21958C24.1166 0.97792 24.1166 0.977905 23.8747 0.977905C23.6328 0.977905 23.6328 0.977905 23.3909 0.977905C22.9071 0.977905 22.1814 0.977905 21.6976 0.977905C21.6976 0.977905 21.6976 1.21958 21.9395 1.21958C22.1814 1.46124 22.1814 1.7029 22.1814 1.7029V3.15288C21.6976 3.15288 21.4557 3.15288 20.9719 3.15288V2.18621C20.9719 2.18621 20.73 1.70288 20.2463 1.46122L20.0044 1.21958C19.2787 1.21958 18.553 1.46123 17.8273 1.7029C17.8273 1.7029 18.0692 1.70291 18.0692 1.94457C18.3111 2.18623 18.553 2.42789 18.553 2.42789L18.7949 3.87783C18.3111 3.87783 18.0692 4.11951 17.5854 4.11951L17.3435 3.15288C17.3435 3.15288 17.3435 3.15286 17.1016 2.9112C16.8597 2.9112 16.8597 2.66955 16.6178 2.42789L16.3759 2.18621C15.6502 2.42787 14.9245 2.66954 14.1988 2.9112C14.1988 2.9112 14.4407 2.91122 14.4407 3.15288C14.6826 3.39454 14.9245 3.39452 14.9245 3.39452L15.4083 4.60282C15.1664 4.84448 14.6826 4.84448 14.4407 5.08614L13.9569 4.11951C13.9569 4.11951 13.4732 3.87785 13.2313 3.63619C12.9894 3.63619 12.9894 3.63618 12.9894 3.39452C12.2637 3.63618 11.7799 4.1195 11.0542 4.60282H11.2961C11.2961 4.60282 11.2961 4.60282 11.538 4.60282C11.7799 4.60282 11.7799 4.8445 11.7799 4.8445L12.5056 6.0528C12.2637 6.29446 11.7799 6.53613 11.538 6.77779L11.0542 6.0528C11.0542 6.0528 10.5704 5.81113 10.0866 5.81113C9.8447 5.81113 9.8447 5.81113 9.8447 5.81113C9.36091 6.29445 8.87712 6.53611 8.39332 7.01943C8.39332 7.01943 8.39332 7.01945 8.15143 7.26111H8.39332C8.63522 7.26111 8.87712 7.50275 8.87712 7.50275L9.8447 8.46941C9.60281 8.71108 9.36091 8.95274 9.11901 9.1944L8.39332 8.46941C8.39332 8.46941 7.90953 8.4694 7.42574 8.22774C7.18384 8.22774 7.18384 8.22774 7.18384 8.22774C6.70005 8.71106 6.21626 9.43604 5.73246 9.91936H5.97436C6.21626 9.91936 6.45815 9.91936 6.45815 9.91936L7.42574 10.6443C7.18384 10.886 6.94195 11.1277 6.70005 11.611L5.97436 11.1277C5.97436 11.1277 5.49057 11.1277 5.00677 11.1277C4.76488 11.1277 4.76488 11.1277 4.76488 11.1277C4.28108 11.8526 4.03919 12.336 3.55539 13.061H3.79729C4.03919 13.061 4.28108 13.061 4.28108 13.061L5.49057 13.786C5.24867 14.0276 5.24867 14.5109 5.00677 14.7526L4.03919 14.2693H3.79729C3.55539 14.2693 3.3135 14.2693 3.0716 14.2693C2.8297 14.2693 2.8297 14.2693 2.8297 14.2693C2.58781 14.9942 2.34591 15.7193 2.10401 16.4442H2.34591C2.58781 16.4442 2.8297 16.2026 2.8297 16.2026L4.03919 16.6859C4.03919 16.9275 3.79729 17.4109 3.79729 17.6525L2.8297 17.4109C2.8297 17.4109 2.34591 17.6525 1.86212 17.6525C1.86212 17.6525 1.86212 17.6525 1.62022 17.6525C1.37832 18.3775 1.37833 19.1025 1.13643 19.8275H1.37833C1.62022 19.5858 1.86212 19.5858 1.86212 19.5858L3.3135 19.8275C3.3135 20.3108 3.3135 20.5525 3.0716 21.0358H2.10401C2.10401 21.0358 1.62022 21.2774 1.13643 21.5191C0.894532 21.5191 0.894531 21.5191 0.894531 21.7608C0.894531 22.0024 0.894531 22.0024 0.894531 22.2441C0.894531 22.7274 0.894531 23.4524 0.894531 23.9357C0.894531 23.9357 1.13643 23.9357 1.13643 23.6941C1.37833 23.4524 1.62022 23.4524 1.62022 23.4524L4.28108 23.2107Z" fill="#9891A1"/>
<path d="M39.1152 11.6114C39.3571 11.853 39.599 12.3364 39.8409 12.578L41.0504 11.853C41.0504 11.853 41.0504 11.6114 41.2923 11.6114C41.2923 11.6114 41.2923 11.6114 41.2923 11.3697C41.0504 10.8864 40.8085 10.6447 40.3247 10.1614C40.0828 10.6447 40.0828 11.128 40.0828 11.128L39.1152 11.6114Z" fill="#A49DAE"/>
<path d="M6.70119 22.2441C6.94308 13.0609 14.6838 5.8111 23.8758 5.8111C33.0679 6.05276 40.3248 13.7859 40.3248 22.9691C40.0829 32.1522 32.3422 39.402 23.1502 39.402C13.7162 39.1604 6.45929 31.4272 6.70119 22.2441Z" fill="#A49DAE"/>
<path d="M4.76692 22.2445C5.00882 12.0947 13.4752 3.87816 23.8768 4.11982C34.0364 4.36148 42.2609 12.8196 42.019 23.2111C41.7771 33.3609 33.3107 41.5774 22.9092 41.3357C12.7495 40.8524 4.52502 32.3942 4.76692 22.2445ZM5.00882 22.2445C4.76692 32.3942 12.7495 40.8524 22.9092 41.0941C33.0688 41.3357 41.5352 33.3609 41.7771 23.2111C42.019 13.0613 34.0364 4.60316 23.8768 4.3615C13.7171 3.87817 5.25072 12.0947 5.00882 22.2445Z" fill="#A49DAE"/>
<path d="M36.2109 36.7445L37.1785 37.7111C37.1785 37.7111 37.4204 37.7111 37.6623 37.9528C37.9042 37.7111 38.388 37.2278 38.6299 36.9861C38.1461 36.9861 37.6623 36.7445 37.6623 36.7445L36.9366 36.0195C36.6947 36.2611 36.4528 36.5028 36.2109 36.7445Z" fill="#A49DAE"/>
<path d="M38.3887 34.3273L39.3563 35.0523C39.3563 35.0523 39.5982 35.0523 39.8401 35.0523C40.0819 34.5689 40.3238 34.3273 40.8076 33.844C40.3238 33.844 39.8401 33.844 39.8401 33.844L39.1144 33.3607C38.8725 33.844 38.6306 34.0856 38.3887 34.3273Z" fill="#A49DAE"/>
<path d="M30.6484 40.3692C30.8903 40.1275 31.3741 40.1275 31.616 39.8859L32.0998 40.8525C32.0998 40.8525 32.5836 41.0941 32.8255 41.3358C32.3417 41.5775 31.8579 41.8191 31.3741 42.0608C31.1322 41.8191 30.8903 41.8191 30.8903 41.8191L30.6484 40.3692Z" fill="#A49DAE"/>
<path d="M34.2784 39.8857L33.5527 38.6774C33.7946 38.4357 34.2784 38.1941 34.5203 37.9524L35.0041 38.6774C35.0041 38.6774 35.4879 38.919 35.9717 38.919C35.4879 39.1607 35.246 39.4024 34.7622 39.644C34.7622 39.644 34.7622 39.644 34.5203 39.644C34.5203 40.1274 34.2784 39.8857 34.2784 39.8857Z" fill="#A49DAE"/>
<path d="M40.3242 31.6692L41.5337 32.3942C41.5337 32.3942 41.7756 32.3942 42.0175 32.3942C42.2594 31.9109 42.5013 31.4276 42.7432 31.1859C42.5013 31.1859 42.2594 31.1859 42.0175 31.1859C41.7756 31.1859 41.7756 31.1859 41.7756 31.1859L40.808 30.7026C40.5661 30.9443 40.5661 31.1859 40.3242 31.6692Z" fill="#A49DAE"/>
<path d="M42.5 20.794C42.5 21.2773 42.5 21.519 42.5 22.0023H43.9514C43.9514 22.0023 44.1933 21.7607 44.4352 21.7607C44.4352 21.2773 44.4352 20.794 44.4352 20.3107C43.9514 20.5523 43.7095 21.0357 43.7095 21.0357L42.5 20.794Z" fill="#A49DAE"/>
<path d="M27.5039 41.3356C27.9877 41.3356 28.2296 41.094 28.7134 41.094L28.9553 42.0606C28.9553 42.0606 28.9553 42.0606 29.1972 42.3023C29.4391 42.3023 29.4391 42.544 29.681 42.7856C29.1972 43.0273 28.7134 43.0273 28.2296 43.269C27.9877 43.0273 27.7458 42.7856 27.7458 42.7856L27.5039 41.3356Z" fill="#A49DAE"/>
<path d="M41.5312 28.5275L42.7407 29.0108C42.7407 29.0108 42.9826 29.0108 43.2245 28.7691C43.4664 28.2858 43.4664 27.8025 43.7083 27.3192C43.2245 27.5609 42.7407 27.5609 42.7407 27.5609L41.7731 27.3192C41.7731 27.8025 41.7731 28.2858 41.5312 28.5275Z" fill="#A49DAE"/>
<path d="M41.7754 17.653C41.7754 17.8947 42.0173 18.378 42.0173 18.8613L43.4687 18.6196C43.4687 18.6196 43.7106 18.378 43.9525 18.1363C43.9525 17.653 43.7106 17.1697 43.4687 16.6863C43.2268 16.928 43.2268 16.928 42.9849 17.1697C42.743 17.4113 42.743 17.4113 42.743 17.4113L41.7754 17.653Z" fill="#A49DAE"/>
<path d="M40.8086 14.511C41.0505 14.7527 41.0505 15.236 41.2924 15.4777L42.5019 14.9943C42.5019 14.9943 42.7438 14.7527 42.7438 14.511C42.5019 14.0277 42.26 13.5443 42.0181 13.3027C41.7762 13.786 41.5343 14.0277 41.5343 14.0277L40.8086 14.511Z" fill="#A49DAE"/>
<path d="M42.2598 25.3856L43.7111 25.6272C43.7111 25.6272 43.953 25.6272 44.1949 25.3856C44.1949 24.9023 44.1949 24.4189 44.4368 23.9356C43.953 24.1773 43.4692 24.4189 43.4692 24.4189H42.5017C42.5017 24.6606 42.5017 24.9023 42.2598 25.3856Z" fill="#A49DAE"/>
<path d="M5.97461 33.3611L7.18409 32.6361C7.42599 32.8778 7.66788 33.3611 7.90978 33.6027L7.18409 34.086C7.18409 34.086 6.94219 34.5694 6.94219 35.0527C6.7003 34.5694 6.4584 34.3277 6.21651 33.8444C6.21651 33.8444 6.21651 33.8444 6.21651 33.6027C5.97461 33.6027 5.97461 33.3611 5.97461 33.3611Z" fill="#A49DAE"/>
<path d="M5.73233 29.7357C5.97423 29.9774 5.97423 30.4607 6.21613 30.7023L5.24854 31.1856C5.24854 31.1856 5.00665 31.6689 4.76475 31.9106C4.52286 31.4273 4.28096 30.944 4.03906 30.4607C4.28096 30.219 4.28096 29.9774 4.28096 29.9774L5.73233 29.7357Z" fill="#A49DAE"/>
<path d="M24.1172 41.5773C24.601 41.5773 24.8429 41.5773 25.3267 41.5773V42.5439C25.3267 42.5439 25.5686 43.0272 26.0524 43.2689C25.5686 43.2689 25.0848 43.2689 24.601 43.2689C24.3591 43.0272 24.3591 42.7856 24.3591 42.7856L24.1172 41.5773Z" fill="#A49DAE"/>
<path d="M9.11964 35.2936C9.36154 35.5352 9.60343 35.7769 9.84533 36.0186L9.11964 36.7436C9.11964 36.7436 9.11964 37.2269 8.87774 37.7102C8.63585 37.4686 8.15205 36.9852 7.91016 36.7436C7.91016 36.5019 8.15205 36.2603 8.15205 36.2603L9.11964 35.2936Z" fill="#A49DAE"/>
<path d="M3.07198 23.2111H4.52336C4.52336 23.6944 4.52336 23.9361 4.52336 24.4194H3.55577C3.55577 24.4194 3.07198 24.661 2.83008 25.1444C2.83008 24.661 2.83008 24.1777 2.83008 23.6944C2.83008 23.4528 3.07198 23.2111 3.07198 23.2111Z" fill="#A49DAE"/>
<path d="M4.76526 26.5944C4.76526 27.0777 5.00716 27.3194 5.00716 27.8027L4.03957 28.0444C4.03957 28.0444 4.03957 28.0444 3.79767 28.286C3.79767 28.5277 3.55577 28.5277 3.31387 28.7693C3.07198 28.286 3.07198 27.8027 2.83008 27.3194C3.07198 27.0777 3.31387 26.8361 3.31387 26.8361L4.76526 26.5944Z" fill="#A49DAE"/>
<path d="M17.5851 40.8525C17.827 40.8525 18.3108 41.0942 18.5527 41.0942L18.3108 42.0608C18.3108 42.0608 18.5527 42.5442 18.5527 43.0275C18.0689 43.0275 17.5851 42.7858 17.1013 42.5441C17.1013 42.3025 16.8594 42.0608 16.8594 42.0608L17.5851 40.8525Z" fill="#A49DAE"/>
<path d="M20.7305 41.5773C21.2143 41.5773 21.4562 41.5773 21.94 41.8189V42.7855C21.94 42.7855 22.1818 43.2688 22.4237 43.7522C21.94 43.7522 21.4562 43.7522 20.9724 43.5105C20.7305 43.2689 20.7305 43.0272 20.7305 43.0272V41.5773Z" fill="#A49DAE"/>
<path d="M14.4405 39.4018C14.6824 39.6435 15.1662 39.6435 15.4081 39.8851L14.9243 40.8518V41.0934C14.9243 41.3351 14.9243 41.5768 14.9243 41.8184C14.4405 41.5768 13.9567 41.3351 13.7148 41.0934C13.7148 40.8518 13.7148 40.6101 13.7148 40.6101L14.4405 39.4018Z" fill="#A49DAE"/>
<path d="M11.5382 37.7106C11.7801 37.9523 12.022 38.194 12.5058 38.4356L12.022 39.1606C12.022 39.1606 12.022 39.6439 12.022 40.1272C11.5382 39.8855 11.2963 39.6439 10.8125 39.1606C10.8125 38.9189 10.8125 38.6773 10.8125 38.6773L11.5382 37.7106Z" fill="#A49DAE"/>
<path d="M10.8125 5.81129C11.2963 6.05295 11.7801 6.05296 11.7801 6.05296L12.2639 6.77796C12.5058 6.5363 12.9896 6.29463 13.2315 6.05296L12.5058 4.84464C12.5058 4.84464 12.2639 4.84463 12.2639 4.60297C12.2639 4.60297 12.2639 4.60297 12.022 4.60297C11.7801 5.32796 11.2963 5.56962 10.8125 5.81129Z" fill="#A49DAE"/>
<path d="M25.0837 2.67007V3.63675C25.5675 3.63675 25.8094 3.63673 26.2932 3.87839L26.5351 2.42843C26.5351 2.42843 26.5351 2.18677 26.2932 1.94511C25.8094 1.94511 25.3256 1.94509 24.8418 1.70343C24.8418 2.18676 25.0837 2.67007 25.0837 2.67007Z" fill="#A49DAE"/>
<path d="M31.375 5.32819C31.6169 5.56985 32.1007 5.56984 32.3426 5.8115L33.0683 4.6032C33.0683 4.6032 33.0683 4.36155 33.0683 4.11989C32.5845 3.87823 32.1007 3.63656 31.8588 3.3949C31.8588 3.63656 31.8588 3.87823 31.8588 4.11989C31.8588 4.36155 31.8588 4.36156 31.8588 4.36156L31.375 5.32819Z" fill="#A49DAE"/>
<path d="M28.4721 3.15345L28.2302 4.12009C28.714 4.12009 28.9559 4.36176 29.1978 4.36176L29.6816 3.15345C29.6816 3.15345 29.6816 2.91175 29.4397 2.67009C28.9559 2.42842 28.4721 2.42843 27.9883 2.18677C28.4721 2.6701 28.4721 3.15345 28.4721 3.15345Z" fill="#A49DAE"/>
<path d="M17.3438 2.67009C17.5856 2.91175 17.5856 2.91178 17.8275 3.15345C18.0694 3.39511 18.0694 3.39509 18.0694 3.39509L18.3113 4.36176C18.5532 4.36176 19.037 4.12009 19.5208 4.12009L19.2789 2.67009C19.2789 2.67009 19.037 2.42843 18.7951 2.18677C18.3113 2.42843 17.8275 2.42842 17.3438 2.67009Z" fill="#A49DAE"/>
<path d="M8.39358 10.8864C8.15168 11.128 7.90978 11.3697 7.66789 11.853L6.9422 11.3697C6.9422 11.3697 6.4584 11.3697 5.97461 11.3697C6.21651 10.8864 6.4584 10.6447 6.9422 10.1614C7.18409 10.1614 7.42599 10.1614 7.42599 10.1614L8.39358 10.8864Z" fill="#A49DAE"/>
<path d="M5.25129 16.6857C5.25129 16.9274 5.0094 17.4107 5.0094 17.6524L4.04181 17.4107C4.04181 17.4107 3.55801 17.6524 3.07422 17.6524C3.07422 17.169 3.31612 16.6857 3.55801 16.2024C3.79991 16.2024 4.04181 15.9607 4.04181 15.9607L5.25129 16.6857Z" fill="#A49DAE"/>
<path d="M20.9727 1.94511C21.2146 2.42844 21.6983 2.67007 21.6983 2.67007V3.63675C22.1821 3.63675 22.424 3.63675 22.9078 3.63675V2.18675C22.9078 2.18675 22.6659 1.94509 22.6659 1.70343C21.9402 1.70343 21.4564 1.70344 20.9727 1.94511Z" fill="#A49DAE"/>
<path d="M13.959 3.87822C14.4428 4.11988 14.6847 4.36157 14.6847 4.36157L15.1685 5.32822C15.4104 5.08655 15.8942 5.08656 16.1361 4.8449L15.6523 3.63658C15.6523 3.63658 15.4104 3.3949 15.1685 3.3949C14.9266 3.3949 14.4428 3.63655 13.959 3.87822Z" fill="#A49DAE"/>
<path d="M6.70216 13.5441C6.46027 13.7857 6.46027 14.2691 6.21837 14.5107L5.25079 14.0274H5.00889C4.767 14.0274 4.5251 14.0274 4.2832 14.0274C4.5251 13.5441 4.767 13.0608 5.00889 12.8191C5.25079 12.8191 5.49268 12.8191 5.49268 12.8191L6.70216 13.5441Z" fill="#A49DAE"/>
<path d="M4.52082 19.8279C4.52082 20.3113 4.52082 20.5529 4.27892 21.0362H3.31134C3.31134 21.0362 2.82754 21.2779 2.34375 21.5195C2.34375 21.0362 2.34375 20.5529 2.58565 20.0696C2.82754 19.828 3.06944 19.8279 3.06944 19.8279H4.52082Z" fill="#A49DAE"/>
<path d="M34.2773 7.02023C34.5192 7.26189 35.003 7.50355 35.2449 7.74521L35.9706 6.77859C35.9706 6.77859 35.9706 6.5369 35.9706 6.29524C35.4868 6.05358 35.2449 5.81193 34.7611 5.32861C34.7611 5.81193 34.7611 6.29524 34.7611 6.29524L34.2773 7.02023Z" fill="#A49DAE"/>
<path d="M10.5694 8.47016C10.3275 8.71182 10.0856 8.95349 9.84367 9.19516L9.11798 8.47016C9.11798 8.47016 8.63418 8.47015 8.15039 8.22848C8.39229 7.98682 8.87608 7.5035 9.11798 7.26184C9.35988 7.26184 9.60177 7.50348 9.60177 7.50348L10.5694 8.47016Z" fill="#A49DAE"/>
<path d="M36.9375 8.95345C37.1794 9.19511 37.4213 9.43678 37.6632 9.67844L38.6308 8.71178C38.6308 8.71178 38.6308 8.47013 38.8727 8.22847C38.6308 7.98681 38.147 7.5035 37.9051 7.26184C37.9051 7.74516 37.6632 8.22847 37.6632 8.22847L36.9375 8.95345Z" fill="#A49DAE"/>
<path opacity="0.1" d="M36.9375 8.95345C37.1794 9.19511 37.4213 9.43678 37.6632 9.67844L38.6308 8.71178C38.6308 8.71178 38.6308 8.47013 38.8727 8.22847C38.6308 7.98681 38.147 7.5035 37.9051 7.26184C37.9051 7.74516 37.6632 8.22847 37.6632 8.22847L36.9375 8.95345Z" fill="#9892A2"/>
<g opacity="0.15">
<path opacity="0.15" d="M3.06954 27.3187C3.06954 27.3187 2.82838 27.3187 3.06954 27.3187C2.82838 27.3187 2.82838 27.3187 3.06954 27.3187C2.82838 27.0776 2.82838 27.0776 3.06954 27.3187Z" fill="#9B94A4"/>
</g>
<path d="M7.66797 22.4857C7.66797 31.1855 14.683 38.1936 23.3912 38.1936C32.0995 38.1936 39.1145 31.1855 39.1145 22.4857C39.1145 13.7859 32.0995 6.77771 23.3912 6.77771C14.683 6.77771 7.66797 13.7859 7.66797 22.4857Z" fill="#FEFEFE"/>
<path d="M10.3301 22.486C10.3301 29.7359 16.1356 35.5357 23.3925 35.5357C30.6494 35.5357 36.4549 29.7359 36.4549 22.486C36.4549 15.2362 30.6494 9.43628 23.3925 9.43628C16.1356 9.67794 10.3301 15.4778 10.3301 22.486Z" fill="#A49DAE"/>
<path d="M22.6659 24.6607L24.1173 20.3107L10.5711 16.9275L9.60352 19.5857L22.6659 24.6607Z" fill="#E1D7EF"/>
<path d="M25.3281 23.9355L21.6997 21.2772L13.959 32.877L16.3779 34.8103L25.3281 23.9355Z" fill="#E1D7EF"/>
<path d="M25.3257 21.2775L21.6973 23.9357L30.4055 34.8105L32.8245 32.8772L25.3257 21.2775Z" fill="#E1D7EF"/>
<path d="M22.668 20.3107L24.1193 24.6607L37.1818 19.5857L36.2142 16.9275L22.668 20.3107Z" fill="#E1D7EF"/>
<path d="M21.2168 22.4858H25.8128L24.8452 8.71112H21.9425L21.2168 22.4858Z" fill="#E1D7EF"/>
<path d="M18.7949 22.4861C18.7949 25.1444 20.972 27.3194 23.6329 27.3194C26.2937 27.3194 28.4708 25.1444 28.4708 22.4861C28.4708 19.8279 26.2937 17.6529 23.6329 17.6529C20.7301 17.8946 18.7949 20.0695 18.7949 22.4861Z" fill="#FEFEFE"/>
</svg>
