<svg width="32" height="28" viewBox="0 0 32 28" fill="none" xmlns="http://www.w3.org/2000/svg">
<path d="M6.30273 11.9574C6.30273 17.274 10.6569 21.6239 15.9786 21.6239C21.3003 21.6239 25.6544 17.274 25.6544 11.9574C25.6544 6.64087 21.3003 2.29095 15.9786 2.29095C10.6569 2.29095 6.30273 6.64087 6.30273 11.9574Z" fill="#E1D7EF"/>
<path d="M0.980469 11.9579C0.980469 12.9246 0.980484 13.8912 1.22238 14.6162C2.43186 21.6244 8.72117 27.1826 16.2199 27.1826C23.7187 27.1826 29.7661 21.8661 31.2174 14.8579C31.4593 13.8912 31.4593 12.9246 31.4593 11.9579C31.4593 7.84967 29.7661 3.9831 27.1052 1.32482C25.6539 0.599839 23.7187 0.116516 21.7835 0.116516H11.1401C8.72116 0.116516 6.54407 0.841508 4.6089 2.04982C2.18995 4.70809 0.980469 8.09133 0.980469 11.9579ZM16.2199 21.3827C12.1077 21.3827 8.47925 18.7245 7.26977 14.8579C7.02788 13.8912 6.78602 12.9246 6.78602 11.9579C6.78602 6.88302 10.8982 2.53313 16.2199 2.53313C21.2997 2.53313 25.6539 6.64136 25.6539 11.9579C25.6539 12.9246 25.4119 13.8912 25.17 14.8579C23.9606 18.7245 20.3322 21.3827 16.2199 21.3827Z" fill="#9891A1"/>
<path d="M8.96387 11.9576C8.96387 15.8242 12.1085 18.9658 15.9788 18.9658C19.8491 18.9658 22.9937 15.8242 22.9937 11.9576C22.9937 8.09104 19.8491 4.94946 15.9788 4.94946C12.1085 4.94946 8.96387 8.09104 8.96387 11.9576Z" fill="white"/>
<path d="M11.8662 11.9574C11.8662 14.374 13.8014 16.3074 16.2204 16.3074C18.6394 16.3074 20.5745 14.374 20.5745 11.9574C20.5745 9.54076 18.6394 7.60748 16.2204 7.60748C13.8014 7.84915 11.8662 9.78243 11.8662 11.9574Z" fill="#E1D7EF"/>
<path opacity="0.5" d="M19.8481 4.22412C21.2995 4.9491 22.509 6.15741 23.4766 7.36571L16.2197 11.7156L19.8481 4.22412Z" fill="white"/>
<path opacity="0.5" d="M16.2204 11.9578L12.3501 19.6909C10.8987 18.9659 9.68926 17.7576 8.72168 16.3077L16.2204 11.9578Z" fill="white"/>
</svg>
