<svg width="111" height="110" viewBox="0 0 111 110" fill="none" xmlns="http://www.w3.org/2000/svg">
<path d="M90.068 54.9932C90.068 74.3261 74.3447 90.0341 54.993 90.0341C35.6412 90.0341 19.918 74.3261 19.918 54.9932C19.918 35.6602 35.6412 19.9522 54.993 19.9522C74.3447 20.1939 90.068 35.6602 90.068 54.9932Z" fill="#DAD1D1"/>
<path d="M96.5508 19C89.7667 14.6551 81.5288 12 73.0486 12H34.5244C27.7402 12 21.4407 13.6896 15.868 16.5862C6.17641 26.4827 0.119141 40 0.119141 54.9655C0.119141 58.5862 0.361417 61.9655 1.08829 65.3448C5.9341 90.6896 28.2248 109.759 55.1191 110C82.0134 110 104.304 90.931 109.15 65.3448C109.877 61.9655 110.119 58.5862 110.119 55.2069C110.119 41.4483 105.031 28.6551 96.5508 19ZM22.8945 65.3448C21.9253 61.9655 21.1984 58.5862 21.1984 54.9655C21.1984 36.3793 36.4627 21.1724 55.1191 21.1724C73.7755 21.1724 89.0398 36.3793 89.0398 54.9655C89.0398 58.5862 88.5553 61.9655 87.3438 65.1034C82.9826 78.6206 70.1411 88.5172 55.1191 88.5172C39.8548 88.7586 27.2557 78.862 22.8945 65.3448Z" fill="black"/>
<path d="M80.6317 54.9928C80.6317 69.0092 69.2626 80.609 54.9907 80.609C40.9607 80.609 29.3496 69.2509 29.3496 54.9928C29.3496 40.9765 40.7188 29.3767 54.9907 29.3767C69.0207 29.6184 80.6317 40.9765 80.6317 54.9928Z" fill="white"/>
<path d="M70.4724 54.9932C70.4724 63.4513 63.4575 70.4595 54.9911 70.4595C46.5247 70.4595 39.5098 63.4513 39.5098 54.9932C39.5098 46.535 46.2828 39.5269 54.9911 39.5269C63.4575 39.7685 70.4724 46.535 70.4724 54.9932Z" fill="#DAD1D1"/>
<path opacity="0.5" d="M41.6874 27.4438C36.3657 30.1021 31.7697 34.2103 28.625 39.2852L54.9917 54.9931L41.6874 27.4438Z" fill="white"/>
<path opacity="0.5" d="M54.9902 54.993L68.5365 83.0258C73.8583 80.3676 78.4543 76.2593 81.599 70.9427L54.9902 54.993Z" fill="white"/>
<path d="M20.4744 55.6989C20.3253 36.3665 35.927 20.5377 55.2781 20.3885C74.6293 20.2392 90.4732 35.8255 90.6223 55.1579C90.7714 74.4902 75.1698 90.3191 55.8186 90.4683C36.4656 90.3759 20.6235 75.0313 20.4744 55.6989Z" fill="#DAD1D1"/>
<path d="M14.2691 91.741C21.0866 96.0334 29.3447 98.625 37.8247 98.5596L76.3477 98.2624C83.1317 98.2101 89.418 96.4719 94.9681 93.5325C104.583 83.5615 110.536 69.9979 110.421 55.0328C110.393 51.4122 110.124 48.0349 109.371 44.6613C104.33 19.3546 81.8931 0.458139 54.9978 0.424188C28.1043 0.631609 5.96126 19.8719 1.31292 45.4948C0.612137 48.8796 0.39593 52.2606 0.421993 55.6398C0.528106 69.398 5.71474 82.1515 14.2691 91.741ZM87.5659 44.8295C88.5611 48.2012 89.314 51.5748 89.342 55.1954C89.4853 73.7811 74.3387 89.1052 55.6829 89.2491C37.027 89.393 21.6459 74.3043 21.5026 55.7186C21.4746 52.098 21.9331 48.7151 23.1203 45.568C27.3772 32.0175 40.1419 22.0222 55.1635 21.9063C70.4255 21.5472 83.1005 31.3463 87.5659 44.8295Z" fill="black"/>
<path d="M29.9105 55.6265C29.8024 41.6105 41.0818 29.9234 55.3533 29.8133C69.3828 29.7051 81.0811 40.9734 81.1911 55.231C81.2992 69.2469 70.0199 80.934 55.7484 81.0441C41.7169 80.9106 30.0186 69.6424 29.9105 55.6265Z" fill="white"/>
<path d="M40.0694 55.5478C40.0041 47.0899 46.9648 40.0278 55.431 39.9625C63.8971 39.8972 70.9659 46.8511 71.0311 55.309C71.0963 63.7669 64.3775 70.8271 55.6695 70.8942C47.2015 70.7179 40.1346 64.0057 40.0694 55.5478Z" fill="#DAD1D1"/>
<path opacity="0.5" d="M69.0669 82.8743C74.368 80.1751 78.9322 76.0315 82.0376 70.9325L55.5505 55.4284L69.0669 82.8743Z" fill="white"/>
<path opacity="0.5" d="M55.5508 55.4285L41.7887 27.501C36.4876 30.2003 31.9234 34.3438 28.8198 39.6845L55.5508 55.4285Z" fill="white"/>
</svg>
