<svg width="192" height="270" viewBox="0 0 192 270" fill="none" xmlns="http://www.w3.org/2000/svg">
<path d="M106.883 164.217C106.641 165.667 106.157 167.6 105.189 169.533C105.189 169.533 104.464 170.983 103.012 173.158C102.77 173.642 102.287 174.367 101.803 175.091C100.109 177.991 97.6905 181.858 95.2715 185.966C93.0944 189.591 90.9174 193.458 88.4984 197.566C84.6281 204.333 80.5158 211.582 77.1292 218.107C73.5008 225.115 70.598 230.915 69.3886 234.782C67.9372 239.373 71.8075 250.006 72.7751 252.423C73.017 252.665 73.017 252.906 73.017 252.906C74.4684 255.081 76.4036 257.015 78.3387 258.948C81.2415 262.09 83.4186 264.264 80.2739 264.506L77.8549 263.539L73.5008 261.848L62.1317 257.498C60.1965 256.773 58.7451 255.081 58.2613 253.148L56.568 246.865L53.9072 254.115L49.7949 252.423C53.4234 243.24 49.7949 239.857 58.987 230.432C61.6479 227.774 65.0344 207.716 69.1467 192.249C70.598 186.45 72.2913 181.375 73.9846 177.991C75.6779 174.608 77.3711 171.95 79.3063 169.292C79.5482 168.808 80.032 168.325 80.2739 167.842C82.9348 164.217 85.5956 161.317 87.2889 159.384C88.9822 157.692 89.9498 156.967 89.9498 156.967C98.4162 154.067 108.092 155.517 106.883 164.217Z" fill="#F0A073"/>
<path d="M58.5007 230.432C58.5007 230.432 58.9845 230.432 59.2264 230.674C61.6453 232.124 63.0967 234.782 63.3386 237.44L64.0643 244.448C64.3062 247.59 66.4833 250.248 69.386 251.215L72.7726 252.423C72.7726 252.665 72.7726 252.665 72.7726 252.665C76.8848 258.465 84.8674 263.781 79.7876 264.023L61.6453 257.015C59.7102 256.29 58.2588 254.598 57.775 252.665L56.0817 246.382L53.4208 253.632L49.3086 251.94C52.937 243.24 49.3086 239.615 58.5007 230.432Z" fill="#C21E1D"/>
<path d="M33.8264 115.643L71.8041 134.734C71.8041 134.734 70.1108 141.501 69.6271 141.501C57.2903 139.326 32.1331 131.834 26.0857 127.726C18.8288 123.134 25.36 110.81 33.8264 115.643Z" fill="#456F96"/>
<path d="M51.4839 11.4866C50.5163 8.82832 50.0325 5.68671 47.8555 3.99508C53.9029 3.75341 59.7084 8.10332 61.6436 13.6615C62.3693 16.0781 62.6112 18.7364 64.0625 20.6697C58.4989 20.428 53.4191 16.8031 51.4839 11.4866Z" fill="#21201D"/>
<path d="M49.5494 38.0693L48.8237 41.6942L47.8562 45.5608L46.8886 50.1524L45.921 54.7439L44.7115 61.2687L27.2949 48.9441L33.8261 24.053L49.5494 38.0693Z" fill="#FFAE80"/>
<path d="M44.4693 54.7438C50.0329 77.7016 61.1601 76.9766 62.6115 89.7847C63.5791 99.2095 53.6614 102.834 53.6614 102.834C50.7586 116.126 48.5815 127.725 49.5491 136.425C49.5491 136.425 21.2472 131.109 19.312 130.625C23.9081 117.334 15.6836 102.834 15.6836 78.4266C15.6836 65.3769 27.7784 47.2523 27.7784 47.2523C27.7784 47.2523 43.7436 51.1189 44.4693 54.7438Z" fill="#FFAE80"/>
<path d="M63.3375 89.785C63.3375 90.2683 63.3375 90.9933 63.3375 91.4766C63.0956 99.6931 53.6617 102.835 53.6617 102.835C53.6617 103.56 53.6617 104.043 53.6617 104.768C53.6617 105.493 53.6617 105.976 53.6617 106.46C53.6617 108.393 53.4198 110.326 53.1779 112.259C52.936 116.126 52.4522 119.509 51.9684 122.651C51.4846 126.517 50.7589 130.384 50.517 133.767C50.517 134.251 50.517 134.734 50.2751 135.217C50.2751 135.217 49.5494 135.217 48.3399 134.976C45.6791 134.492 40.3573 133.767 35.0356 133.042C34.7937 133.042 34.3099 133.042 34.068 132.801C27.053 131.834 20.2799 130.867 19.5542 130.626C19.7961 129.659 20.2799 128.692 20.2799 127.726C20.5218 127.242 20.5218 126.759 20.5218 126.276C20.7637 124.101 21.0056 121.926 20.7637 119.751C20.7637 119.026 20.7637 118.301 20.7637 117.576C20.5218 113.709 19.5542 109.36 18.8285 104.768C17.8609 99.6931 16.8934 94.1349 16.4096 87.61C16.4096 86.6434 16.1677 85.6767 16.1677 84.71C16.1677 82.7768 15.9258 80.6018 15.9258 78.4269C15.9258 65.6188 23.9084 53.7774 24.3922 53.0524C24.3922 53.0524 27.053 54.0191 29.9558 54.9857C29.9558 54.9857 42.7763 58.369 55.113 75.0436C58.9834 79.8768 62.6118 83.0184 63.3375 89.785Z" fill="#5589B9"/>
<path opacity="0.4" d="M47.8579 45.5603L46.8903 50.1518L45.9227 54.7434C43.7457 53.2934 40.3591 50.6351 39.3915 49.1852C36.4888 44.8353 35.5212 40.2437 35.2793 34.9272C37.6983 39.0354 42.5362 42.4187 46.6484 44.8353C47.1322 45.3186 47.616 45.3186 47.8579 45.5603Z" fill="#FFAE80"/>
<path d="M61.645 29.8528C59.7098 27.1946 58.5004 25.7446 58.0166 23.5697C64.3059 -7.36298 0.928991 2.78678 24.8767 35.4111L30.9242 34.6861C34.0688 42.4192 39.1486 47.2525 49.0664 48.9441C52.4529 48.7025 55.3557 48.9441 57.7747 46.5275C59.226 44.3526 59.9517 40.9693 59.7098 35.8944C59.7098 34.9277 60.1936 33.9611 61.1612 33.4778C61.8869 32.7528 62.8545 31.5445 61.645 29.8528Z" fill="#FFAE80"/>
<path d="M27.2959 48.9439C25.3607 46.2856 14.2335 38.7941 13.9916 24.0527C13.2659 -6.39658 55.8397 -2.53002 55.8397 11.003C55.8397 11.003 55.5978 8.82808 49.3085 19.2195C45.6801 25.2611 39.3908 25.986 37.4556 34.2025C33.8271 48.9439 27.2959 48.9439 27.2959 48.9439Z" fill="#21201D"/>
<path d="M105.428 267.89L86.0758 265.473C84.1406 265.231 82.2054 264.023 81.2379 262.331L78.0932 256.773L77.8513 258.948L77.3675 263.54V264.506L73.0134 264.023C73.0134 263.298 73.2553 262.573 73.2553 261.848C73.4972 257.982 72.7715 255.323 72.7715 252.423C72.7715 249.282 73.2553 245.898 76.6418 240.34C77.8513 238.165 77.6094 228.74 77.3675 218.107C77.1256 211.583 76.8837 204.574 77.1256 198.533C77.1256 193.458 77.6094 189.108 78.3351 185.966C78.8189 184.275 79.3027 182.342 79.7865 180.892C80.5122 178.717 81.2378 176.783 81.9635 174.85C82.4473 173.642 82.9311 172.433 83.4149 171.225C84.6244 168.567 85.8339 166.633 86.5596 164.942C87.7691 163.009 88.4948 161.8 88.4948 161.8C96.4773 156.725 106.153 155.517 107.121 164.217C107.363 165.667 107.121 167.6 106.879 169.775C106.879 169.775 106.637 170.983 105.911 172.675C105.669 173.642 105.186 174.608 104.944 175.817C103.976 178.717 103.009 182.583 101.557 186.933C100.59 189.833 99.622 193.216 98.8963 196.6C94.0584 213.516 88.7367 233.574 88.2529 241.79C87.7691 247.348 96.2354 258.706 96.2354 258.706C101.315 263.298 110.265 266.44 105.428 267.89Z" fill="#FFAE80"/>
<path d="M76.3994 240.339C76.3994 240.339 76.8832 240.339 77.367 240.581C80.0279 241.548 81.9631 243.481 82.9306 246.139L85.3496 252.906C86.3172 255.806 88.9781 257.981 92.1227 258.222L95.7512 258.464C95.7512 258.706 95.9931 258.706 95.9931 258.706C101.315 263.297 110.507 266.439 105.669 268.13L86.3172 265.714C84.382 265.472 82.4469 264.264 81.4793 262.572L78.3346 257.014L77.367 264.747L73.0129 264.264C74.2224 254.114 69.8682 251.697 76.3994 240.339Z" fill="#EA4A49"/>
<path d="M40.6012 31.0611C41.3269 34.2027 41.8107 36.136 39.8755 36.6193C37.6985 37.1026 34.07 34.9277 33.3443 31.7861C32.6186 28.6445 34.3119 26.4695 36.489 25.9862C38.666 25.5029 39.8755 27.9195 40.6012 31.0611Z" fill="#FFAE80"/>
<path d="M39.8723 35.6527C40.1142 36.3777 39.6304 37.3443 38.6629 37.5859C37.9372 37.8276 36.9696 37.3443 36.7277 36.3776C36.4858 35.6527 36.9696 34.6861 37.9372 34.4444C38.9047 34.4444 39.6304 34.9277 39.8723 35.6527Z" fill="white"/>
<path opacity="0.3" d="M63.3378 91.4766C63.0959 99.693 53.9038 102.835 53.9038 102.835C53.9038 103.56 53.9038 104.043 53.9038 104.768C53.9038 105.251 53.9038 105.976 53.9038 106.46C53.9038 108.393 53.6619 110.326 53.6619 112.259C53.1781 116.126 52.9362 119.509 52.4524 122.651C51.9686 126.517 51.243 130.384 51.0011 133.767L48.824 133.284L34.3102 130.384L21.4897 127.726C21.2478 127.242 21.0059 126.759 20.764 126.276C21.0059 124.101 21.2478 121.926 21.0059 119.751C21.0059 119.026 21.0059 118.301 21.0059 117.576C20.764 113.709 19.7964 109.359 19.0707 104.768C18.1031 99.693 17.1355 94.1349 16.6518 87.61C16.6518 86.6434 16.4099 85.6767 16.4099 84.71C16.4099 82.7767 16.168 80.6018 16.168 78.4269C16.168 65.6188 24.1506 53.7774 24.6343 53.0524C16.4099 75.2853 28.0209 80.1185 40.5995 83.9851L48.824 99.6931C54.3876 99.2097 59.7093 96.0681 63.3378 91.4766Z" fill="#456F96"/>
<path opacity="0.5" d="M90.9159 146.817C90.9159 146.817 51.4868 150.2 34.7959 132.8C30.1999 128.209 23.9106 128.692 21.0078 127.725L33.8283 130.384L48.3421 133.284C51.4868 133.767 69.1452 137.392 90.9159 146.817Z" fill="#EA4A49"/>
<path d="M38.181 72.1434L51.2434 117.576C54.63 126.759 40.8419 133.525 36.7296 121.684L21.2483 77.2183C16.8942 61.7519 34.3107 59.577 38.181 72.1434Z" fill="#5589B9"/>
<path opacity="0.5" d="M102.042 186.933C101.8 186.933 101.558 186.933 101.316 186.933C99.3807 186.691 97.2037 186.208 95.2685 185.966C89.9468 184.758 84.6251 183.066 79.3033 180.891C77.3682 180.166 75.433 179.199 73.4978 178.233C70.837 177.025 68.1761 175.333 65.5152 173.883C65.5152 173.883 34.0687 174.366 21.0063 171.225C15.6846 170.016 11.8142 165.666 10.8466 160.35C9.87906 155.033 9.39526 150.925 11.3304 144.883C16.4103 161.558 20.0387 177.024 70.1113 164.216C80.029 179.199 102.042 186.933 102.042 186.933Z" fill="#EA4A49"/>
<path d="M63.8607 184.484V258.191C63.8607 263.991 59.0228 268.824 53.2172 268.824H10.6435C4.83793 268.824 0 263.991 0 258.191V184.484C0 178.685 4.83793 173.851 10.6435 173.851H53.2172C59.0228 173.851 63.8607 178.443 63.8607 184.484Z" fill="#F9B233"/>
<path d="M63.6188 192.701H0V198.501H63.6188V192.701Z" fill="#5E4A4C"/>
<path d="M16.9348 173.851H13.0645V268.824H16.9348V173.851Z" fill="#5E4A4C"/>
<path d="M51.5246 173.851H47.6543V261.574H51.5246V173.851Z" fill="#5E4A4C"/>
<path d="M181.419 268.591H85.6282C80.7903 268.591 76.9199 264.724 76.9199 259.891V199.959C76.9199 195.126 80.7903 191.259 85.6282 191.259H181.419C186.257 191.259 190.127 195.126 190.127 199.959V259.891C190.369 264.724 186.499 268.591 181.419 268.591Z" fill="black"/>
<path d="M145.622 186.184C137.881 183.042 129.173 183.042 121.432 186.184C119.981 186.667 118.529 186.184 117.804 184.975C117.078 183.767 117.804 182.075 119.497 181.351C128.447 177.726 138.607 177.726 147.557 181.351C149.25 182.075 149.976 183.767 149.25 184.975C148.525 186.184 147.073 186.667 145.622 186.184Z" fill="black"/>
<path d="M120.703 191.017H118.768V184.492C118.768 184.009 119.251 183.525 119.735 183.525C120.219 183.525 120.703 184.009 120.703 184.492V191.017Z" fill="#DADADA"/>
<path d="M148.523 191.017H146.588V184.492C146.588 184.009 147.072 183.525 147.555 183.525C148.039 183.525 148.523 184.009 148.523 184.492V191.017Z" fill="#DADADA"/>
<path d="M89.0156 202.375C89.0156 202.859 88.5318 203.342 88.048 203.342H76.9207C76.4369 203.342 75.9531 202.859 75.9531 202.375V198.75C75.9531 194.159 79.8235 190.292 84.4195 190.292H88.048C88.5318 190.292 89.0156 190.776 89.0156 191.259V202.375Z" fill="#DADADA"/>
<path d="M178.035 202.375C178.035 202.859 178.519 203.342 179.003 203.342H190.13C190.614 203.342 191.098 202.859 191.098 202.375V198.75C191.098 194.159 187.227 190.292 182.631 190.292H179.003C178.519 190.292 178.035 190.776 178.035 191.259V202.375Z" fill="#DADADA"/>
<path d="M178.035 257.232C178.035 256.749 178.519 256.266 179.003 256.266H190.13C190.614 256.266 191.098 256.749 191.098 257.232V260.857C191.098 265.449 187.227 269.315 182.631 269.315H179.003C178.519 269.315 178.035 268.832 178.035 268.349V257.232Z" fill="#DADADA"/>
<path d="M89.0156 257.232C89.0156 256.749 88.5318 256.266 88.048 256.266H76.9207C76.4369 256.266 75.9531 256.749 75.9531 257.232V260.857C75.9531 265.449 79.8235 269.315 84.4195 269.315H88.048C88.5318 269.315 89.0156 268.832 89.0156 268.349V257.232Z" fill="#DADADA"/>
<path d="M94.0965 214.691H71.3583V209.375C71.3583 207.2 69.665 205.508 67.4879 205.508H51.2809C49.1038 205.508 47.4105 207.2 47.4105 209.375V214.691H24.6722C19.3505 214.691 15.2383 218.8 15.2383 224.116V259.157C15.2383 264.474 19.3505 268.582 24.6722 268.582H94.3384C99.6602 268.582 103.772 264.474 103.772 259.157V224.116C103.531 219.041 99.4183 214.691 94.0965 214.691ZM51.039 209.375C51.039 209.133 51.2809 209.133 51.2809 209.133H67.4879C67.7298 209.133 67.7298 209.375 67.7298 209.375V214.691H51.039V209.375Z" fill="#EA4A49"/>
<path d="M39.6704 214.692H31.9297V268.582H39.6704V214.692Z" fill="#FDFDFD"/>
<path d="M86.8403 214.692H79.0996V268.582H86.8403V214.692Z" fill="#FDFDFD"/>
<path d="M40.8804 230.641H30.7207V221.217H40.8804V230.641ZM33.1397 228.225H38.4614V223.633H33.1397V228.225Z" fill="#231F20"/>
<path d="M88.0503 230.641H77.8906V221.217H88.0503V230.641ZM80.3096 228.225H85.6313V223.633H80.3096V228.225Z" fill="#231F20"/>
</svg>
