<svg width="636" height="628" viewBox="0 0 636 628" fill="none" xmlns="http://www.w3.org/2000/svg">
<g opacity="0.05">
<path fill-rule="evenodd" clip-rule="evenodd" d="M268.622 342.707C287.004 341.847 300.735 333.554 309.814 317.828L372 210.118C381.08 194.392 381.311 178.502 372.694 162.449C364.68 146.35 350.288 132.304 329.518 120.312C308.747 108.32 288.955 102.63 270.14 103.24C251.758 104.1 238.112 112.245 229.204 127.675L167.018 235.384C157.939 251.11 157.622 267.148 166.068 283.498C174.686 299.551 189.379 313.573 210.15 325.565C230.92 337.556 250.411 343.271 268.622 342.707ZM305.742 159.995C310.069 162.493 310.948 165.967 308.378 170.418L243.622 282.579C241.052 287.029 237.604 288.006 233.277 285.507C228.95 283.009 228.071 279.535 230.641 275.084L295.396 162.923C297.966 158.473 301.415 157.496 305.742 159.995Z" fill="white"/>
<path fill-rule="evenodd" clip-rule="evenodd" d="M465.744 407.854C456.665 423.58 442.934 431.873 424.551 432.733C406.341 433.297 386.85 427.582 366.08 415.591C345.309 403.599 330.615 389.577 321.998 373.524C313.552 357.174 313.868 341.136 322.948 325.41L385.134 217.701C394.042 202.271 407.687 194.126 426.07 193.266C444.885 192.656 464.677 198.346 485.448 210.338C506.218 222.33 520.61 236.376 528.623 252.475C537.241 268.528 537.01 284.418 527.93 300.144L465.744 407.854ZM464.308 260.444C466.877 255.994 465.999 252.519 461.671 250.021C457.344 247.522 453.896 248.499 451.326 252.95L386.57 365.11C384.001 369.561 384.879 373.035 389.207 375.534C393.534 378.032 396.982 377.056 399.552 372.605L464.308 260.444Z" fill="white"/>
<path d="M269.543 428.09L298.753 414.154C313.195 407.264 315.138 386.655 302.059 379.103L270.313 360.775C257.233 353.223 240.357 365.211 241.611 381.163L244.147 413.427C244.362 416.157 245.099 418.638 246.239 420.8L240.537 430.676C235.769 438.935 226.323 442.962 217.969 440.298L158.918 421.469C154.078 419.925 148.656 422.88 146.807 428.067C144.959 433.255 147.383 438.711 152.223 440.254L227.568 464.279C229.882 465.017 231.998 466.239 233.794 467.874L292.272 521.112C296.029 524.532 301.966 523.903 305.534 519.708C309.102 515.513 308.95 509.34 305.194 505.921L259.361 464.196C252.877 458.293 251.642 448.099 256.41 439.841L262.112 429.964C264.554 429.871 267.072 429.269 269.543 428.09Z" fill="white"/>
<path fill-rule="evenodd" clip-rule="evenodd" d="M79.6466 176.751C135.406 80.1725 163.286 31.8835 207.743 12.7044C220.978 6.99452 234.992 3.2675 249.331 1.64377C297.492 -3.81018 345.961 24.1732 442.899 80.1401L458.802 89.3222C555.74 145.289 604.209 173.272 623.566 217.709C629.329 230.938 633.108 244.938 634.781 259.255C640.4 307.346 612.521 355.635 556.761 452.213C501.002 548.791 473.122 597.08 428.665 616.259C415.429 621.969 401.416 625.696 387.077 627.32C338.915 632.774 290.447 604.79 193.509 548.823L177.605 539.641C80.6679 483.675 32.1993 455.691 12.8415 411.255C7.07838 398.025 3.29933 384.026 1.62644 369.708C-3.99254 321.618 23.8872 273.329 79.6466 176.751ZM424.603 111.83L440.506 121.012C489.695 149.411 523.966 169.257 548.613 187.331C572.686 204.985 583.901 218.4 589.923 232.223C594.245 242.145 597.08 252.645 598.334 263.383C600.082 278.343 597.127 295.526 585.171 322.762C572.93 350.647 553.248 384.842 524.954 433.849C496.66 482.855 476.887 516.999 458.858 541.542C441.249 565.514 427.846 576.665 414.016 582.631C404.089 586.914 393.579 589.709 382.825 590.927C367.843 592.623 350.618 589.618 323.293 577.597C295.317 565.289 260.994 545.533 211.805 517.134L195.901 507.952C146.713 479.552 112.442 459.707 87.7951 441.632C63.7216 423.978 52.5067 410.564 46.4849 396.741C42.1625 386.819 39.3282 376.319 38.0736 365.581C36.3256 350.621 39.2811 333.438 51.237 306.202C63.4776 278.317 83.1603 244.121 111.454 195.115C139.748 146.108 159.521 111.965 177.55 87.4217C195.159 63.4495 208.562 52.2984 222.392 46.3322C232.319 42.0498 242.829 39.2545 253.583 38.0367C268.565 36.3401 285.79 39.3454 313.115 51.3667C341.091 63.6743 375.414 83.4306 424.603 111.83Z" fill="white"/>
</g>
</svg>
