<?xml version="1.0" encoding="UTF-8"?><!DOCTYPE svg PUBLIC "-//W3C//DTD SVG 1.1//EN" "http://www.w3.org/Graphics/SVG/1.1/DTD/svg11.dtd"><svg xmlns="http://www.w3.org/2000/svg" xmlns:xlink="http://www.w3.org/1999/xlink"><symbol id="feecbook" viewBox="0 0 9 16"><g fill="none"><path fill-rule="evenodd" clip-rule="evenodd" d="M8.553 3.367H6.297c-.266 0-.563.35-.563.818v1.63h2.819v2.32h-2.82v6.97H3.072v-6.97H.658v-2.32H3.07V4.446C3.07 2.488 4.43.894 6.297.894h2.256v2.473z" fill="#fff"/></g></symbol><symbol id="img_instagram" viewBox="0 0 59 59"><g fill="none"><path d="M29.489 2.008h.022c5.466-.03 7.971.023 11.996.192 2.975.173 4.344.437 6.523 1.228 2.092.848 3.02 1.47 4.58 2.962 1.492 1.56 2.114 2.488 2.962 4.58.791 2.18 1.055 3.548 1.228 6.523.169 4.025.223 6.53.192 11.996v.022c.03 5.466-.023 7.971-.192 11.996-.173 2.975-.437 4.344-1.228 6.523-.848 2.092-1.47 3.02-2.962 4.58-1.56 1.492-2.488 2.114-4.58 2.962-2.18.791-3.548 1.055-6.523 1.228-4.025.169-6.53.223-11.996.192h-.022c-5.466.03-7.971-.023-11.996-.192-2.975-.173-4.344-.437-6.523-1.228-2.092-.848-3.02-1.47-4.58-2.962-1.492-1.56-2.114-2.488-2.962-4.58-.791-2.18-1.055-3.548-1.228-6.523-.169-4.025-.223-6.53-.192-11.996v-.022c-.03-5.466.023-7.971.192-11.996.173-2.975.437-4.344 1.228-6.523.848-2.092 1.47-3.02 2.962-4.58 1.56-1.492 2.488-2.114 4.58-2.962 2.18-.791 3.548-1.055 6.523-1.228 4.025-.169 6.53-.223 11.996-.192z" stroke="#2C3036" stroke-width="4" stroke-linecap="square"/><circle cx="29.5" cy="29.5" r="12.5" stroke="#2C3036" stroke-width="4" stroke-linecap="square"/><circle cx="45.5" cy="13.5" r="3.5" fill="#2C3036"/></g></symbol><symbol id="instagram" viewBox="0 0 16 16"><g fill="none"><path fill-rule="evenodd" clip-rule="evenodd" d="M8 0C5.827 0 5.555.01 4.702.048 3.85.087 3.269.222 2.76.42a3.922 3.922 0 00-1.417.923c-.445.445-.719.89-.923 1.417-.198.509-.333 1.09-.372 1.942C.01 5.555 0 5.827 0 8s.01 2.445.048 3.298c.039.852.174 1.433.372 1.942.204.526.478.973.923 1.417.445.445.89.719 1.417.923.509.198 1.09.333 1.942.372C5.555 15.99 5.827 16 8 16s2.445-.01 3.298-.048c.852-.039 1.433-.174 1.942-.372a3.922 3.922 0 001.417-.923c.445-.444.719-.89.923-1.417.198-.509.333-1.09.372-1.942C15.99 10.445 16 10.173 16 8s-.01-2.445-.048-3.298c-.039-.852-.174-1.433-.372-1.942a3.922 3.922 0 00-.923-1.417A3.922 3.922 0 0013.24.42c-.509-.198-1.09-.333-1.942-.372C10.445.01 10.173 0 8 0zm0 1.441c2.136 0 2.39.009 3.233.047.78.036 1.203.166 1.485.276.374.145.64.318.92.598.28.28.453.546.598.92.11.282.24.705.276 1.485.038.844.047 1.097.047 3.233s-.009 2.39-.047 3.233c-.036.78-.166 1.203-.276 1.485-.145.374-.318.64-.598.92-.28.28-.546.453-.92.598-.282.11-.705.24-1.485.276-.844.038-1.097.047-3.233.047s-2.39-.009-3.233-.047c-.78-.036-1.203-.166-1.485-.276a2.48 2.48 0 01-.92-.598 2.479 2.479 0 01-.598-.92c-.11-.282-.24-.705-.276-1.485-.038-.844-.047-1.097-.047-3.233s.009-2.39.047-3.233c.036-.78.166-1.203.276-1.485.145-.374.318-.64.598-.92.28-.28.546-.453.92-.598.282-.11.705-.24 1.485-.276.844-.038 1.097-.047 3.233-.047zM3.892 8a4.108 4.108 0 118.216 0 4.108 4.108 0 01-8.216 0zM8 10.667a2.667 2.667 0 110-5.334 2.667 2.667 0 010 5.334zm4.27-5.977a.96.96 0 100-1.92.96.96 0 000 1.92z" fill="#fff"/></g></symbol><symbol id="mark" viewBox="0 0 15 15"><g fill="none"><mask id="a" fill="#fff"><path fill-rule="evenodd" clip-rule="evenodd" d="M14.1.273a1.4 1.4 0 01.552 1.902L8.34 13.65c-.765 1.39-2.736 1.463-3.601.133L.826 7.763a1.4 1.4 0 012.348-1.526l3.276 5.04L12.198.825A1.4 1.4 0 0114.1.273z"/></mask><path d="M14.652 2.175l2.453 1.349-2.454-1.35zM14.1.273l1.349-2.453-1.35 2.453zM8.34 13.65L10.793 15 8.34 13.65zm-3.601.133l-2.348 1.526 2.348-1.526zM.826 7.763l-2.348 1.526L.826 7.763zm.41-1.937l1.527 2.348-1.526-2.348zm1.938.411L5.52 4.711 3.174 6.237zm3.276 5.04l-2.348 1.526 2.548 3.92 2.253-4.097-2.453-1.349zM12.198.825L9.745-.525l2.453 1.35zm4.907 2.699a4.2 4.2 0 00-1.656-5.704L12.75 2.727a1.4 1.4 0 01-.552-1.902l4.907 2.699zM10.793 15l6.312-11.476L12.198.825 5.886 12.301 10.793 15zm-8.402.309c2.018 3.104 6.618 2.935 8.402-.31l-4.907-2.698a.7.7 0 011.2-.044l-4.695 3.052zm-3.913-6.02l3.913 6.02 4.696-3.052-3.913-6.02-4.696 3.052zm1.233-5.81a4.2 4.2 0 00-1.233 5.81l4.696-3.052a1.4 1.4 0 01-.411 1.937L-.29 3.479zM5.52 4.71a4.2 4.2 0 00-5.81-1.232l3.052 4.695a1.4 1.4 0 01-1.937-.411l4.695-3.052zm3.276 5.04l-3.276-5.04L.826 7.763l3.276 5.04 4.695-3.052zM9.745-.524L3.996 9.928l4.907 2.698 5.748-10.451-4.906-2.7zm5.704-1.656A4.2 4.2 0 009.745-.524l4.907 2.699a1.4 1.4 0 01-1.902.552L15.45-2.18z" fill="#C29974" mask="url(#a)"/></g></symbol><symbol id="pinterest" viewBox="0 0 16 16"><g fill="none"><path fill-rule="evenodd" clip-rule="evenodd" d="M8 0a8 8 0 00-3.21 15.327c-.023-.558-.004-1.23.138-1.837l1.03-4.359s-.256-.51-.256-1.266c0-1.185.688-2.07 1.543-2.07.727 0 1.08.546 1.08 1.2 0 .732-.468 1.826-.707 2.84-.2.849.425 1.54 1.262 1.54 1.516 0 2.536-1.946 2.536-4.253 0-1.753-1.18-3.065-3.328-3.065-2.426 0-3.938 1.809-3.938 3.83 0 .698.205 1.189.527 1.569.148.176.168.245.114.447l-.162.641c-.054.203-.218.276-.4.2C3.11 10.29 2.59 9.065 2.59 7.689c0-2.272 1.916-4.998 5.717-4.998 3.055 0 5.065 2.212 5.065 4.583 0 3.139-1.744 5.483-4.317 5.483-.863 0-1.675-.466-1.954-.996 0 0-.465 1.843-.563 2.199-.169.616-.501 1.233-.805 1.713A8 8 0 0016 8 8 8 0 008 0z" fill="#fff"/></g></symbol><symbol id="search" viewBox="0 0 24 24"><g fill="none"><path d="M14.365 3.26c-3.42 0-6.2 2.82-6.2 6.26 0 1.46.5 2.78 1.32 3.86l-5.88 5.94c-.34.36-.34.92 0 1.26.18.18.4.26.62.26.24 0 .46-.08.64-.26l5.88-5.96c1.02.74 2.26 1.16 3.6 1.16 3.42 0 6.2-2.82 6.2-6.26.02-3.46-2.76-6.26-6.18-6.26zm0 10.94c-2.54 0-4.6-2.1-4.6-4.68 0-2.58 2.06-4.68 4.6-4.68 2.54 0 4.6 2.1 4.6 4.68 0 2.58-2.06 4.68-4.6 4.68zm3.1-4.6a.69.69 0 01-.68.6h-.1a.71.71 0 01-.6-.78c.14-1.04-1.02-1.58-1.08-1.6-.34-.16-.5-.58-.34-.92.16-.34.56-.5.92-.36.08.02 2.16.98 1.88 3.06zm-1.46 1.52c.14.14.24.36.24.56 0 .22-.08.42-.24.56a.84.84 0 01-.56.24c-.2 0-.42-.08-.56-.24a.84.84 0 01-.24-.56c0-.2.08-.42.24-.56a.84.84 0 01.56-.24c.2 0 .4.08.56.24z" fill="#000"/></g></symbol><symbol id="star-active" viewBox="0 0 14 13"><g fill="none"><path d="M5.608.927c.3-.921 1.603-.921 1.903 0L8.58 4.22h3.46c.97 0 1.372 1.24.588 1.809l-2.8 2.034 1.07 3.292c.299.921-.756 1.688-1.54 1.118l-2.8-2.034-2.8 2.034c-.783.57-1.838-.197-1.538-1.118l1.07-3.292L.49 6.028c-.784-.57-.381-1.81.588-1.81h3.46l1.07-3.29z" fill="#C29974"/></g></symbol><symbol id="star-hover" viewBox="0 0 14 13"><g fill="none"><path d="M5.608.927c.3-.921 1.603-.921 1.903 0L8.58 4.22h3.46c.97 0 1.372 1.24.588 1.809l-2.8 2.034 1.07 3.292c.299.921-.756 1.688-1.54 1.118l-2.8-2.034-2.8 2.034c-.783.57-1.838-.197-1.538-1.118l1.07-3.292L.49 6.028c-.784-.57-.381-1.81.588-1.81h3.46l1.07-3.29z" fill="#836E5B"/></g></symbol><symbol id="star" viewBox="0 0 14 13"><g fill="none"><path d="M5.608.927c.3-.921 1.603-.921 1.903 0L8.58 4.22h3.46c.97 0 1.372 1.24.588 1.809l-2.8 2.034 1.07 3.292c.299.921-.756 1.688-1.54 1.118l-2.8-2.034-2.8 2.034c-.783.57-1.838-.197-1.538-1.118l1.07-3.292L.49 6.028c-.784-.57-.381-1.81.588-1.81h3.46l1.07-3.29z" fill="#fff"/></g></symbol><symbol id="twitter" viewBox="0 0 15 13"><g fill="none"><path fill-rule="evenodd" clip-rule="evenodd" d="M13.1 3.29c.006.126.01.253.01.382 0 3.904-2.973 8.406-8.407 8.406a8.365 8.365 0 01-4.53-1.328 5.925 5.925 0 004.375-1.225 2.959 2.959 0 01-2.76-2.05c.18.035.367.052.557.052.269 0 .53-.035.778-.103A2.958 2.958 0 01.752 4.527V4.49c.399.221.856.354 1.34.37A2.95 2.95 0 01.778 2.4c0-.54.145-1.048.399-1.484a8.385 8.385 0 006.089 3.086 2.995 2.995 0 01-.075-.674 2.953 2.953 0 015.109-2.02A5.844 5.844 0 0014.177.59a2.957 2.957 0 01-1.3 1.635 5.882 5.882 0 001.699-.465A6.04 6.04 0 0113.1 3.29z" fill="#fff"/></g></symbol><symbol id="union" viewBox="0 0 100 52"><g fill="none"><path fill-rule="evenodd" clip-rule="evenodd" d="M0 0h18.113C31.12 0 40.406 12.371 40.406 24.036v3.697c0 11.664-9.286 24.036-22.293 24.036H0V0zm37.62 24.036c0-10.523-8.403-21.263-19.507-21.263H2.787v46.223h15.326c11.104 0 19.506-10.74 19.506-21.263v-3.697z" fill="#1E0606"/><path d="M46.444 0h2.786v49.227h14.862V52H46.444V0zM67.807 0v51.769h2.787V27.383l.684-.68 24.81 25.066H100L73.249 24.74 98.109 0h-3.941L70.594 23.461V0h-2.787z" fill="#1E0606"/></g></symbol></svg>